<svg width="21" height="21" viewBox="0 0 21 21" fill="none" xmlns="http://www.w3.org/2000/svg">
<path fill-rule="evenodd" clip-rule="evenodd" d="M4.01044 4.2716C4.28961 4.13549 4.58896 4.03999 4.84555 4.039C5.01466 4.03835 5.17574 4.09108 5.30133 4.14439C5.43569 4.20142 5.57503 4.27908 5.71241 4.3677C5.98767 4.54526 6.28789 4.78814 6.57232 5.06433C7.12172 5.59781 7.7054 6.34649 7.86259 7.08219C7.92935 7.39463 7.86256 7.71265 7.69369 7.97019C7.59008 8.1282 7.45742 8.29574 7.33236 8.45169C7.31438 8.47412 7.29645 8.49642 7.27861 8.51863C7.16692 8.65763 7.05841 8.79266 6.9576 8.92962C6.84074 9.08841 6.74731 9.23257 6.68431 9.36187C6.61992 9.49402 6.60275 9.57971 6.60294 9.62835C6.60382 9.85675 6.74485 10.3078 7.05632 10.8692C7.35606 11.4095 7.77346 11.9798 8.2378 12.4349C8.72729 12.9147 9.16032 13.2707 9.54417 13.5043C9.90225 13.7222 10.1887 13.8159 10.4187 13.8275C10.4294 13.8185 10.444 13.8054 10.4627 13.7868C10.5054 13.7444 10.5524 13.6915 10.6169 13.6182L10.6255 13.6084C10.6846 13.5412 10.7553 13.4607 10.8335 13.3795C11.1776 13.0217 11.6958 12.6191 12.5514 12.6158C13.2202 12.6132 13.9046 12.9636 14.4458 13.4281C14.9954 13.8998 15.4703 14.55 15.6876 15.2606C15.8722 15.8643 15.5775 16.3802 15.2285 16.737C14.877 17.0964 14.3841 17.3932 13.9051 17.6227C13.0989 18.0091 12.2018 18.147 11.3278 18.0663C9.77309 17.9228 7.60568 17.3138 5.03788 14.8998C5.02946 14.8919 5.0213 14.8837 5.01344 14.8752C3.55507 13.3037 2.76029 11.9724 2.3458 10.7537C1.93063 9.5329 1.91091 8.46351 1.94358 7.4576C1.98074 6.31325 2.5085 5.46095 3.10456 4.9019C3.40113 4.62374 3.7185 4.41394 4.01044 4.2716ZM3.80062 5.64402C3.36239 6.05504 2.98733 6.6648 2.96051 7.49063C2.9292 8.45489 2.95296 9.37891 3.30909 10.4261C3.6649 11.4723 4.36627 12.6795 5.74743 14.1704C8.14069 16.4156 10.0899 16.9302 11.4213 17.0531C12.1288 17.1184 12.8394 17.0052 13.4653 16.7052C13.8997 16.497 14.2703 16.2615 14.5011 16.0255C14.7344 15.787 14.741 15.6444 14.7146 15.5581C14.5639 15.0652 14.2153 14.571 13.7832 14.2002C13.3427 13.8222 12.8873 13.6319 12.5553 13.6332C12.0765 13.6351 11.8043 13.8379 11.5667 14.0848C11.5047 14.1493 11.4474 14.2145 11.3852 14.2852L11.381 14.2901C11.3209 14.3584 11.2509 14.438 11.1796 14.5088C11.0507 14.6368 10.8149 14.8448 10.4749 14.8462C9.97958 14.8481 9.49001 14.6624 9.01527 14.3735C8.53863 14.0835 8.04292 13.6686 7.52562 13.1616C6.98316 12.6299 6.50821 11.9786 6.16659 11.3628C5.83671 10.7682 5.58739 10.1286 5.58547 9.63227C5.58445 9.36799 5.66929 9.12216 5.76962 8.91622C5.87135 8.70744 6.00536 8.50693 6.13816 8.3265C6.25286 8.17066 6.37642 8.01695 6.48726 7.87907C6.50471 7.85736 6.52184 7.83604 6.53858 7.81517C6.66715 7.65483 6.76985 7.52356 6.84283 7.41226C6.86905 7.37227 6.87517 7.33028 6.86758 7.29479C6.77521 6.86245 6.3737 6.2897 5.86351 5.79428C5.61814 5.55603 5.36996 5.35759 5.16087 5.22271C5.05607 5.15511 4.96925 5.10877 4.90379 5.08098C4.86743 5.06555 4.84591 5.05938 4.83721 5.05709C4.78633 5.06149 4.65291 5.09033 4.45634 5.18616C4.25382 5.2849 4.02119 5.43714 3.80062 5.64402Z" fill="#313131"/>
</svg>
