<svg width="137" height="106" viewBox="0 0 137 106" fill="none" xmlns="http://www.w3.org/2000/svg">
<g filter="url(#filter0_d_7215_2296)">
<rect x="34" y="20" width="69" height="38" rx="5" fill="url(#paint0_linear_7215_2296)"/>
</g>
<g clip-path="url(#clip0_7215_2296)">
<path d="M81.7842 34.2021C81.6234 33.9934 81.4076 33.8891 81.1367 33.8891H63.8965L62.5762 29.7853C62.4577 29.4143 62.2969 29.0974 62.0937 28.8347C61.8906 28.5719 61.6748 28.3864 61.4463 28.2782C61.2178 28.17 61.0189 28.0966 60.8496 28.058C60.6803 28.0193 60.5111 28 60.3418 28H56.8633C56.6432 28 56.457 28.0696 56.3047 28.2087C56.1523 28.3478 56.0762 28.5255 56.0762 28.7419C56.0762 28.8656 56.11 28.9854 56.1777 29.1013C56.2454 29.2172 56.3428 29.3061 56.4697 29.3679C56.5967 29.4298 56.7279 29.4607 56.8633 29.4607H60.3418C60.4095 29.4607 60.473 29.4684 60.5322 29.4839C60.5915 29.4993 60.6719 29.565 60.7734 29.6809C60.875 29.7969 60.9596 29.9708 61.0273 30.2026L65.5215 45.2732C65.5553 45.3659 65.6104 45.4548 65.6865 45.5398C65.7627 45.6248 65.8516 45.6905 65.9531 45.7369C66.0547 45.7833 66.1647 45.8065 66.2832 45.8065H77.252C77.4212 45.8065 77.5778 45.7601 77.7217 45.6673C77.8656 45.5746 77.9629 45.4587 78.0137 45.3196L81.8984 34.8861C81.9831 34.6388 81.945 34.4108 81.7842 34.2021ZM76.6934 44.3226H66.918L64.3281 35.373H79.9687L76.6934 44.3226ZM75.0937 47.2903C74.5352 47.2903 74.057 47.4719 73.6592 47.8352C73.2614 48.1984 73.0625 48.6351 73.0625 49.1452C73.0625 49.6552 73.2614 50.0919 73.6592 50.4551C74.057 50.8184 74.5352 51 75.0937 51C75.6523 51 76.1305 50.8184 76.5283 50.4551C76.9261 50.0919 77.125 49.6552 77.125 49.1452C77.125 48.6351 76.9261 48.1984 76.5283 47.8352C76.1305 47.4719 75.6523 47.2903 75.0937 47.2903ZM67.7812 47.2903C67.4089 47.2903 67.0661 47.3753 66.7529 47.5454C66.4398 47.7154 66.1943 47.9395 66.0166 48.2177C65.8389 48.496 65.75 48.8051 65.75 49.1452C65.75 49.6552 65.9489 50.0919 66.3467 50.4551C66.7445 50.8184 67.2227 51 67.7812 51C68.3398 51 68.818 50.8184 69.2158 50.4551C69.6136 50.0919 69.8125 49.6552 69.8125 49.1452C69.8125 49.0215 69.7998 48.8979 69.7744 48.7742C69.749 48.6505 69.7109 48.5346 69.6602 48.4264C69.6094 48.3182 69.5459 48.2139 69.4697 48.1134C69.3936 48.0129 69.3089 47.9202 69.2158 47.8352C69.1227 47.7502 69.0212 47.6729 68.9111 47.6033C68.8011 47.5338 68.6868 47.4758 68.5684 47.4294C68.4499 47.3831 68.3229 47.3483 68.1875 47.3251C68.0521 47.3019 67.9167 47.2903 67.7812 47.2903Z" fill="#F1F4F4"/>
</g>
<defs>
<filter id="filter0_d_7215_2296" x="0" y="0" width="137" height="106" filterUnits="userSpaceOnUse" color-interpolation-filters="sRGB">
<feFlood flood-opacity="0" result="BackgroundImageFix"/>
<feColorMatrix in="SourceAlpha" type="matrix" values="0 0 0 0 0 0 0 0 0 0 0 0 0 0 0 0 0 0 127 0" result="hardAlpha"/>
<feOffset dy="14"/>
<feGaussianBlur stdDeviation="17"/>
<feColorMatrix type="matrix" values="0 0 0 0 0 0 0 0 0 0 0 0 0 0 0 0 0 0 0.25 0"/>
<feBlend mode="normal" in2="BackgroundImageFix" result="effect1_dropShadow_7215_2296"/>
<feBlend mode="normal" in="SourceGraphic" in2="effect1_dropShadow_7215_2296" result="shape"/>
</filter>
<linearGradient id="paint0_linear_7215_2296" x1="34" y1="38.9036" x2="104.064" y2="40.8976" gradientUnits="userSpaceOnUse">
<stop stop-color="#896D4D"/>
<stop offset="1" stop-color="#CDB79C"/>
</linearGradient>
<clipPath id="clip0_7215_2296">
<rect width="26" height="23" fill="white" transform="translate(56 28)"/>
</clipPath>
</defs>
</svg>
