<svg width="23" height="21" viewBox="0 0 23 21" fill="none" xmlns="http://www.w3.org/2000/svg">
<g clip-path="url(#clip0_144_411)">
<path d="M22.8091 5.6628C22.6668 5.47228 22.4759 5.37702 22.2363 5.37702H6.98535L5.81738 1.63004C5.71256 1.29133 5.57031 1.00202 5.39062 0.762097C5.21094 0.522177 5.02002 0.352823 4.81787 0.254032C4.61572 0.155242 4.43978 0.0882056 4.29004 0.0529234C4.1403 0.0176411 3.99056 0 3.84082 0H0.763672C0.56901 0 0.404297 0.0635081 0.269531 0.190524C0.134766 0.31754 0.0673828 0.479839 0.0673828 0.677419C0.0673828 0.790323 0.0973307 0.899698 0.157227 1.00554C0.217122 1.11139 0.303223 1.19254 0.415527 1.24899C0.527832 1.30544 0.64388 1.33367 0.763672 1.33367H3.84082C3.90072 1.33367 3.95687 1.34073 4.00928 1.35484C4.06169 1.36895 4.13281 1.42893 4.22266 1.53478C4.3125 1.64062 4.38737 1.7994 4.44727 2.01109L8.42285 15.7712C8.4528 15.8558 8.50146 15.937 8.56885 16.0146C8.63623 16.0922 8.71484 16.1522 8.80469 16.1946C8.89453 16.2369 8.99186 16.2581 9.09668 16.2581H18.7998C18.9495 16.2581 19.0881 16.2157 19.2153 16.131C19.3426 16.0464 19.4287 15.9405 19.4736 15.8135L22.9102 6.2873C22.985 6.06149 22.9513 5.85333 22.8091 5.6628ZM18.3057 14.9032H9.6582L7.36719 6.73185H21.2031L18.3057 14.9032ZM16.8906 17.6129C16.3965 17.6129 15.9735 17.7787 15.6216 18.1104C15.2697 18.442 15.0938 18.8407 15.0938 19.3065C15.0938 19.7722 15.2697 20.1709 15.6216 20.5025C15.9735 20.8342 16.3965 21 16.8906 21C17.3848 21 17.8078 20.8342 18.1597 20.5025C18.5116 20.1709 18.6875 19.7722 18.6875 19.3065C18.6875 18.8407 18.5116 18.442 18.1597 18.1104C17.8078 17.7787 17.3848 17.6129 16.8906 17.6129ZM10.4219 17.6129C10.0924 17.6129 9.78923 17.6905 9.51221 17.8458C9.23519 18.001 9.01807 18.2056 8.86084 18.4597C8.70361 18.7137 8.625 18.996 8.625 19.3065C8.625 19.7722 8.80094 20.1709 9.15283 20.5025C9.50472 20.8342 9.92773 21 10.4219 21C10.916 21 11.339 20.8342 11.6909 20.5025C12.0428 20.1709 12.2188 19.7722 12.2188 19.3065C12.2188 19.1935 12.2075 19.0806 12.1851 18.9677C12.1626 18.8548 12.1289 18.749 12.084 18.6502C12.0391 18.5514 11.9829 18.4562 11.9155 18.3644C11.8481 18.2727 11.7733 18.188 11.6909 18.1104C11.6086 18.0328 11.5187 17.9622 11.4214 17.8987C11.3241 17.8352 11.223 17.7823 11.1182 17.7399C11.0133 17.6976 10.901 17.6658 10.7812 17.6447C10.6615 17.6235 10.5417 17.6129 10.4219 17.6129Z" fill="#F2F5F5"/>
</g>
<defs>
<clipPath id="clip0_144_411">
<rect width="23" height="21" fill="white"/>
</clipPath>
</defs>
</svg>
