<svg width="176" height="43" viewBox="0 0 176 43" fill="none" xmlns="http://www.w3.org/2000/svg">
<path d="M85.96 12.605H84.505C84.115 11.135 83.12 10.4 81.52 10.4C80.45 10.4 79.61 10.785 79 11.555C78.4 12.325 78.1 13.365 78.1 14.675C78.1 15.975 78.39 16.995 78.97 17.735C79.55 18.475 80.365 18.845 81.415 18.845C82.235 18.845 82.915 18.605 83.455 18.125C84.005 17.635 84.355 16.935 84.505 16.025H85.96C85.83 17.245 85.36 18.245 84.55 19.025C83.74 19.805 82.71 20.195 81.46 20.195C80.44 20.195 79.56 19.975 78.82 19.535C78.09 19.085 77.525 18.445 77.125 17.615C76.725 16.785 76.525 15.825 76.525 14.735C76.525 13.105 76.955 11.75 77.815 10.67C78.675 9.59 79.9 9.05 81.49 9.05C82.35 9.05 83.1 9.195 83.74 9.485C84.39 9.775 84.905 10.185 85.285 10.715C85.675 11.245 85.9 11.875 85.96 12.605ZM88.667 14.585C88.667 14.265 88.702 13.985 88.772 13.745C88.852 13.495 88.967 13.26 89.117 13.04C89.637 12.31 90.537 11.945 91.817 11.945C92.777 11.945 93.517 12.125 94.037 12.485C94.567 12.845 94.832 13.5 94.832 14.45V18.155C94.832 18.435 94.862 18.645 94.922 18.785C94.992 18.915 95.117 18.98 95.297 18.98L95.432 18.95H95.687V19.97C95.537 20.02 95.387 20.06 95.237 20.09C95.097 20.12 94.972 20.135 94.862 20.135C94.102 20.135 93.687 19.74 93.617 18.95C92.847 19.78 91.942 20.195 90.902 20.195C90.142 20.195 89.522 19.98 89.042 19.55C88.572 19.11 88.337 18.55 88.337 17.87C88.337 16.77 88.782 16.06 89.672 15.74C90.572 15.42 91.847 15.185 93.497 15.035V14.645C93.497 14.115 93.372 13.74 93.122 13.52C92.872 13.3 92.437 13.19 91.817 13.19C91.257 13.19 90.837 13.3 90.557 13.52C90.277 13.74 90.117 14.095 90.077 14.585H88.667ZM93.482 16.085C91.972 16.295 91.022 16.495 90.632 16.685C90.082 16.885 89.807 17.245 89.807 17.765C89.807 18.155 89.937 18.45 90.197 18.65C90.447 18.87 90.797 18.98 91.247 18.98C91.847 18.98 92.367 18.8 92.807 18.44C93.257 18.08 93.482 17.65 93.482 17.15V16.085ZM102.25 18.35L105.34 12.14H106.69V20H105.34V14.975L102.97 20H101.59L99.1902 14.975V20H97.8252V12.14H99.1902L102.25 18.35ZM108.907 16.085C108.907 14.785 109.222 13.77 109.852 13.04C110.492 12.31 111.362 11.945 112.462 11.945C113.562 11.945 114.432 12.305 115.072 13.025C115.712 13.745 116.032 14.765 116.032 16.085C116.032 17.375 115.712 18.385 115.072 19.115C114.442 19.835 113.572 20.195 112.462 20.195C111.352 20.195 110.482 19.83 109.852 19.1C109.222 18.36 108.907 17.355 108.907 16.085ZM110.347 16.085C110.347 16.985 110.537 17.695 110.917 18.215C111.297 18.725 111.812 18.98 112.462 18.98C113.142 18.98 113.667 18.72 114.037 18.2C114.407 17.68 114.592 16.955 114.592 16.025C114.592 15.415 114.507 14.905 114.337 14.495C114.177 14.065 113.932 13.74 113.602 13.52C113.282 13.3 112.902 13.19 112.462 13.19C112.022 13.19 111.647 13.3 111.337 13.52C111.027 13.74 110.782 14.08 110.602 14.54C110.432 14.99 110.347 15.505 110.347 16.085ZM123.066 20H118.866V12.14H122.736C123.536 12.14 124.141 12.32 124.551 12.68C124.941 13.06 125.136 13.515 125.136 14.045C125.136 14.855 124.711 15.44 123.861 15.8C124.911 16.07 125.436 16.79 125.436 17.96C125.436 18.48 125.186 18.95 124.686 19.37C124.196 19.79 123.656 20 123.066 20ZM122.736 16.46H120.231V18.785H122.796C123.166 18.785 123.466 18.68 123.696 18.47C123.936 18.26 124.056 17.99 124.056 17.66C124.056 17.34 123.936 17.06 123.696 16.82C123.456 16.58 123.136 16.46 122.736 16.46ZM122.346 15.275C123.306 15.275 123.786 14.89 123.786 14.12C123.786 13.84 123.656 13.63 123.396 13.49C123.146 13.34 122.796 13.265 122.346 13.265H120.231V15.275H122.346ZM132.093 20H127.893V12.14H129.258V15.275H131.823C132.313 15.275 132.753 15.37 133.143 15.56C133.543 15.75 133.873 16.025 134.133 16.385C134.393 16.735 134.523 17.16 134.523 17.66C134.523 18.31 134.263 18.865 133.743 19.325C133.233 19.775 132.683 20 132.093 20ZM131.763 16.46H129.258V18.785H131.823C132.193 18.785 132.493 18.68 132.723 18.47C132.963 18.26 133.083 17.99 133.083 17.66C133.083 17.34 132.963 17.06 132.723 16.82C132.483 16.58 132.163 16.46 131.763 16.46ZM137.193 20H135.843V12.14H137.193V20ZM143.975 20H139.775V12.14H143.645C144.445 12.14 145.05 12.32 145.46 12.68C145.85 13.06 146.045 13.515 146.045 14.045C146.045 14.855 145.62 15.44 144.77 15.8C145.82 16.07 146.345 16.79 146.345 17.96C146.345 18.48 146.095 18.95 145.595 19.37C145.105 19.79 144.565 20 143.975 20ZM143.645 16.46H141.14V18.785H143.705C144.075 18.785 144.375 18.68 144.605 18.47C144.845 18.26 144.965 17.99 144.965 17.66C144.965 17.34 144.845 17.06 144.605 16.82C144.365 16.58 144.045 16.46 143.645 16.46ZM143.255 15.275C144.215 15.275 144.695 14.89 144.695 14.12C144.695 13.84 144.565 13.63 144.305 13.49C144.055 13.34 143.705 13.265 143.255 13.265H141.14V15.275H143.255ZM148.367 16.085C148.367 14.785 148.682 13.77 149.312 13.04C149.952 12.31 150.822 11.945 151.922 11.945C153.022 11.945 153.892 12.305 154.532 13.025C155.172 13.745 155.492 14.765 155.492 16.085C155.492 17.375 155.172 18.385 154.532 19.115C153.902 19.835 153.032 20.195 151.922 20.195C150.812 20.195 149.942 19.83 149.312 19.1C148.682 18.36 148.367 17.355 148.367 16.085ZM149.807 16.085C149.807 16.985 149.997 17.695 150.377 18.215C150.757 18.725 151.272 18.98 151.922 18.98C152.602 18.98 153.127 18.72 153.497 18.2C153.867 17.68 154.052 16.955 154.052 16.025C154.052 15.415 153.967 14.905 153.797 14.495C153.637 14.065 153.392 13.74 153.062 13.52C152.742 13.3 152.362 13.19 151.922 13.19C151.482 13.19 151.107 13.3 150.797 13.52C150.487 13.74 150.242 14.08 150.062 14.54C149.892 14.99 149.807 15.505 149.807 16.085ZM161.041 20.09C160.421 20.09 159.871 19.975 159.391 19.745C158.911 19.515 158.546 19.21 158.296 18.83C158.046 18.45 157.921 18.06 157.921 17.66H159.406C159.406 17.98 159.556 18.275 159.856 18.545C160.166 18.815 160.561 18.95 161.041 18.95C161.551 18.95 161.976 18.82 162.316 18.56C162.656 18.3 162.826 17.98 162.826 17.6C162.826 17.29 162.706 17.025 162.466 16.805C162.236 16.575 161.916 16.46 161.506 16.46H160.816V15.275H161.116C161.556 15.275 161.901 15.175 162.151 14.975C162.401 14.765 162.526 14.49 162.526 14.15C162.526 13.88 162.406 13.66 162.166 13.49C161.906 13.34 161.556 13.265 161.116 13.265C160.706 13.265 160.351 13.355 160.051 13.535C159.751 13.715 159.601 13.91 159.601 14.12H158.281C158.281 13.57 158.556 13.095 159.106 12.695C159.666 12.285 160.366 12.08 161.206 12.08C161.756 12.08 162.231 12.16 162.631 12.32C163.031 12.48 163.346 12.71 163.576 13.01C163.816 13.31 163.936 13.645 163.936 14.015C163.936 14.845 163.511 15.44 162.661 15.8C163.131 15.87 163.526 16.08 163.846 16.43C164.166 16.78 164.326 17.195 164.326 17.675C164.326 18.325 164.001 18.89 163.351 19.37C162.711 19.85 161.941 20.09 161.041 20.09Z" fill="#AFAFAF"/>
<circle cx="11.5" cy="16.5" r="11" stroke="#AFAFAF"/>
<path d="M62 10.5L52 5L42 10.5L52 16M62 10.5L52 16M62 10.5V23.5L52 29M52 16V29M52 29L47.5 26.5M35 16H43M39 20H47M37 24H45" stroke="#AFAFAF"/>
<path d="M77.96 30.272H78.528C78.1067 30.9333 77.808 31.5413 77.632 32.096C77.456 32.6453 77.368 33.288 77.368 34.024C77.368 34.4933 77.4053 34.9333 77.48 35.344C77.56 35.7493 77.6827 36.1413 77.848 36.52C78.0187 36.8987 78.2373 37.2987 78.504 37.72H77.96C77.64 37.2987 77.384 36.9093 77.192 36.552C77.0907 36.3547 77.0027 36.1653 76.928 35.984C76.8587 35.8027 76.8 35.6027 76.752 35.384C76.6507 34.9627 76.6 34.5093 76.6 34.024C76.6 33.2987 76.7067 32.6667 76.92 32.128C77.1387 31.5893 77.4853 30.9707 77.96 30.272ZM79.7089 31.808H80.4369V32.368C80.6502 32.1227 80.8502 31.952 81.0369 31.856C81.2235 31.7547 81.4529 31.704 81.7249 31.704C82.0235 31.704 82.2822 31.7733 82.5009 31.912C82.7195 32.0453 82.8662 32.2187 82.9409 32.432C83.0155 32.64 83.0529 32.9413 83.0529 33.336V36H82.3329V33.456C82.3329 33.056 82.2689 32.776 82.1409 32.616C82.0235 32.4507 81.8129 32.368 81.5089 32.368C81.2635 32.368 81.0529 32.4267 80.8769 32.544C80.7062 32.656 80.5889 32.8107 80.5249 33.008C80.4822 33.1253 80.4582 33.2213 80.4529 33.296L80.4369 33.808V36H79.7089V31.808ZM84.1894 33.912C84.1894 33.2187 84.3574 32.6773 84.6934 32.288C85.0347 31.8987 85.4987 31.704 86.0854 31.704C86.672 31.704 87.136 31.896 87.4774 32.28C87.8187 32.664 87.9894 33.208 87.9894 33.912C87.9894 34.6 87.8187 35.1387 87.4774 35.528C87.1414 35.912 86.6774 36.104 86.0854 36.104C85.4934 36.104 85.0294 35.9093 84.6934 35.52C84.3574 35.1253 84.1894 34.5893 84.1894 33.912ZM84.9574 33.912C84.9574 34.392 85.0587 34.7707 85.2614 35.048C85.464 35.32 85.7387 35.456 86.0854 35.456C86.448 35.456 86.728 35.3173 86.9254 35.04C87.1227 34.7627 87.2214 34.376 87.2214 33.88C87.2214 33.5547 87.176 33.2827 87.0854 33.064C87 32.8347 86.8694 32.6613 86.6934 32.544C86.5227 32.4267 86.32 32.368 86.0854 32.368C85.8507 32.368 85.6507 32.4267 85.4854 32.544C85.32 32.6613 85.1894 32.8427 85.0934 33.088C85.0027 33.328 84.9574 33.6027 84.9574 33.912ZM94.8688 32.376V31.808H95.5728V35.352C95.5728 35.8693 95.5275 36.2907 95.4368 36.616C95.3515 36.9467 95.1755 37.2133 94.9088 37.416C94.6421 37.6187 94.2661 37.72 93.7808 37.72C93.2848 37.72 92.9088 37.6187 92.6528 37.416C92.3968 37.2187 92.2368 36.8933 92.1728 36.44H92.8928C92.9515 36.6747 93.0448 36.8347 93.1728 36.92C93.3061 37.0107 93.5035 37.056 93.7648 37.056C94.1541 37.056 94.4261 36.9413 94.5808 36.712C94.7408 36.4827 94.8208 36.0773 94.8208 35.496C94.6501 35.7147 94.4715 35.872 94.2848 35.968C94.1035 36.0587 93.8901 36.104 93.6448 36.104C93.1435 36.104 92.7461 35.9147 92.4528 35.536C92.1595 35.152 92.0128 34.6293 92.0128 33.968C92.0128 33.28 92.1568 32.7307 92.4448 32.32C92.7381 31.9093 93.1435 31.704 93.6608 31.704C94.1675 31.704 94.5701 31.928 94.8688 32.376ZM92.7808 33.912C92.7808 34.3707 92.8741 34.744 93.0608 35.032C93.2528 35.3147 93.5061 35.456 93.8208 35.456C94.1355 35.456 94.3861 35.3147 94.5728 35.032C94.7595 34.7493 94.8528 34.376 94.8528 33.912C94.8528 33.4427 94.7595 33.0693 94.5728 32.792C94.3915 32.5093 94.1408 32.368 93.8208 32.368C93.4955 32.368 93.2395 32.5067 93.0528 32.784C92.8715 33.0613 92.7808 33.4373 92.7808 33.912ZM96.6394 33.912C96.6394 33.2187 96.8074 32.6773 97.1434 32.288C97.4847 31.8987 97.9487 31.704 98.5354 31.704C99.122 31.704 99.586 31.896 99.9274 32.28C100.269 32.664 100.439 33.208 100.439 33.912C100.439 34.6 100.269 35.1387 99.9274 35.528C99.5914 35.912 99.1274 36.104 98.5354 36.104C97.9434 36.104 97.4794 35.9093 97.1434 35.52C96.8074 35.1253 96.6394 34.5893 96.6394 33.912ZM97.4074 33.912C97.4074 34.392 97.5087 34.7707 97.7114 35.048C97.914 35.32 98.1887 35.456 98.5354 35.456C98.898 35.456 99.178 35.3173 99.3754 35.04C99.5727 34.7627 99.6714 34.376 99.6714 33.88C99.6714 33.5547 99.626 33.2827 99.5354 33.064C99.45 32.8347 99.3194 32.6613 99.1434 32.544C98.9727 32.4267 98.77 32.368 98.5354 32.368C98.3007 32.368 98.1007 32.4267 97.9354 32.544C97.77 32.6613 97.6394 32.8427 97.5434 33.088C97.4527 33.328 97.4074 33.6027 97.4074 33.912ZM105.015 34.632C105.015 35.1013 104.871 35.464 104.583 35.72C104.295 35.976 103.879 36.104 103.335 36.104C102.834 36.104 102.428 35.984 102.119 35.744C101.815 35.4987 101.663 35.1707 101.663 34.76C101.663 34.504 101.727 34.304 101.855 34.16C101.988 34.0107 102.223 33.864 102.559 33.72L103.783 33.232C104.018 33.136 104.135 33.0133 104.135 32.864C104.135 32.72 104.06 32.6027 103.911 32.512C103.767 32.416 103.58 32.368 103.351 32.368C102.78 32.368 102.495 32.592 102.495 33.04H101.775C101.775 32.752 101.842 32.5093 101.975 32.312C102.108 32.1093 102.295 31.9573 102.535 31.856C102.775 31.7547 103.039 31.704 103.327 31.704C103.626 31.704 103.892 31.7547 104.127 31.856C104.362 31.9573 104.543 32.1013 104.671 32.288C104.804 32.4747 104.871 32.6853 104.871 32.92C104.871 33.1493 104.818 33.3333 104.711 33.472C104.615 33.6107 104.423 33.7467 104.135 33.88L102.823 34.44C102.663 34.5093 102.556 34.5707 102.503 34.624C102.45 34.672 102.423 34.7467 102.423 34.848C102.423 35.024 102.506 35.1707 102.671 35.288C102.842 35.4 103.06 35.456 103.327 35.456C103.652 35.456 103.89 35.3893 104.039 35.256C104.188 35.1173 104.263 34.9093 104.263 34.632H105.015ZM106.166 33.912C106.166 33.2187 106.334 32.6773 106.67 32.288C107.011 31.8987 107.475 31.704 108.062 31.704C108.649 31.704 109.113 31.896 109.454 32.28C109.795 32.664 109.966 33.208 109.966 33.912C109.966 34.6 109.795 35.1387 109.454 35.528C109.118 35.912 108.654 36.104 108.062 36.104C107.47 36.104 107.006 35.9093 106.67 35.52C106.334 35.1253 106.166 34.5893 106.166 33.912ZM106.934 33.912C106.934 34.392 107.035 34.7707 107.238 35.048C107.441 35.32 107.715 35.456 108.062 35.456C108.425 35.456 108.705 35.3173 108.902 35.04C109.099 34.7627 109.198 34.376 109.198 33.88C109.198 33.5547 109.153 33.2827 109.062 33.064C108.977 32.8347 108.846 32.6613 108.67 32.544C108.499 32.4267 108.297 32.368 108.062 32.368C107.827 32.368 107.627 32.4267 107.462 32.544C107.297 32.6613 107.166 32.8427 107.07 33.088C106.979 33.328 106.934 33.6027 106.934 33.912ZM113.718 36H111.478V31.808H113.542C113.968 31.808 114.291 31.904 114.51 32.096C114.718 32.2987 114.822 32.5413 114.822 32.824C114.822 33.256 114.595 33.568 114.142 33.76C114.702 33.904 114.982 34.288 114.982 34.912C114.982 35.1893 114.848 35.44 114.582 35.664C114.32 35.888 114.032 36 113.718 36ZM113.542 34.112H112.206V35.352H113.574C113.771 35.352 113.931 35.296 114.054 35.184C114.182 35.072 114.246 34.928 114.246 34.752C114.246 34.5813 114.182 34.432 114.054 34.304C113.926 34.176 113.755 34.112 113.542 34.112ZM113.334 33.48C113.846 33.48 114.102 33.2747 114.102 32.864C114.102 32.7147 114.032 32.6027 113.894 32.528C113.76 32.448 113.574 32.408 113.334 32.408H112.206V33.48H113.334ZM116.06 33.912C116.06 33.2187 116.228 32.6773 116.564 32.288C116.905 31.8987 117.369 31.704 117.956 31.704C118.542 31.704 119.006 31.896 119.348 32.28C119.689 32.664 119.86 33.208 119.86 33.912C119.86 34.6 119.689 35.1387 119.348 35.528C119.012 35.912 118.548 36.104 117.956 36.104C117.364 36.104 116.9 35.9093 116.564 35.52C116.228 35.1253 116.06 34.5893 116.06 33.912ZM116.828 33.912C116.828 34.392 116.929 34.7707 117.132 35.048C117.334 35.32 117.609 35.456 117.956 35.456C118.318 35.456 118.598 35.3173 118.796 35.04C118.993 34.7627 119.092 34.376 119.092 33.88C119.092 33.5547 119.046 33.2827 118.956 33.064C118.87 32.8347 118.74 32.6613 118.564 32.544C118.393 32.4267 118.19 32.368 117.956 32.368C117.721 32.368 117.521 32.4267 117.356 32.544C117.19 32.6613 117.06 32.8427 116.964 33.088C116.873 33.328 116.828 33.6027 116.828 33.912ZM121.371 31.808H122.099V32.304C122.27 32.1013 122.454 31.9467 122.651 31.84C122.843 31.7493 123.059 31.704 123.299 31.704C123.806 31.704 124.206 31.896 124.499 32.28C124.793 32.6587 124.939 33.1867 124.939 33.864C124.939 34.5413 124.79 35.0853 124.491 35.496C124.198 35.9013 123.793 36.104 123.275 36.104C123.014 36.104 122.795 36.0613 122.619 35.976C122.443 35.8853 122.27 35.7467 122.099 35.56V37.616H121.371V31.808ZM123.123 32.368C122.803 32.368 122.547 32.504 122.355 32.776C122.163 33.048 122.067 33.4267 122.067 33.912C122.067 34.376 122.161 34.7493 122.347 35.032C122.539 35.3147 122.798 35.456 123.123 35.456C123.433 35.456 123.689 35.32 123.891 35.048C124.078 34.7707 124.171 34.392 124.171 33.912C124.171 33.4267 124.075 33.048 123.883 32.776C123.697 32.504 123.443 32.368 123.123 32.368ZM129.918 34.128H126.87C126.87 34.56 126.974 34.8907 127.182 35.12C127.395 35.344 127.688 35.456 128.062 35.456C128.632 35.456 128.979 35.176 129.102 34.616H129.854C129.758 35.08 129.544 35.4453 129.214 35.712C128.888 35.9733 128.494 36.104 128.03 36.104C127.438 36.104 126.971 35.9093 126.63 35.52C126.288 35.1253 126.118 34.5893 126.118 33.912C126.118 33.24 126.294 32.7067 126.646 32.312C126.998 31.9173 127.475 31.72 128.078 31.72C128.696 31.72 129.158 31.912 129.462 32.296C129.766 32.6747 129.918 33.1787 129.918 33.808V34.128ZM129.182 33.48C129.182 33.3093 129.152 33.1573 129.094 33.024C129.04 32.8853 128.96 32.7627 128.854 32.656C128.662 32.464 128.398 32.368 128.062 32.368C127.4 32.368 127.011 32.7387 126.894 33.48H129.182ZM131.962 34.128V36H131.234V31.808H131.962V33.48H133.858V31.808H134.578V36H133.858V34.128H131.962ZM136.674 34.128V36H135.946V31.808H136.674V33.48H138.57V31.808H139.29V36H138.57V34.128H136.674ZM140.427 33.912C140.427 33.2187 140.595 32.6773 140.931 32.288C141.272 31.8987 141.736 31.704 142.323 31.704C142.91 31.704 143.374 31.896 143.715 32.28C144.056 32.664 144.227 33.208 144.227 33.912C144.227 34.6 144.056 35.1387 143.715 35.528C143.379 35.912 142.915 36.104 142.323 36.104C141.731 36.104 141.267 35.9093 140.931 35.52C140.595 35.1253 140.427 34.5893 140.427 33.912ZM141.195 33.912C141.195 34.392 141.296 34.7707 141.499 35.048C141.702 35.32 141.976 35.456 142.323 35.456C142.686 35.456 142.966 35.3173 143.163 35.04C143.36 34.7627 143.459 34.376 143.459 33.88C143.459 33.5547 143.414 33.2827 143.323 33.064C143.238 32.8347 143.107 32.6613 142.931 32.544C142.76 32.4267 142.558 32.368 142.323 32.368C142.088 32.368 141.888 32.4267 141.723 32.544C141.558 32.6613 141.427 32.8427 141.331 33.088C141.24 33.328 141.195 33.6027 141.195 33.912ZM148.419 34.496H149.171C149.112 34.9173 149.005 35.2373 148.851 35.456C148.493 35.9093 148.027 36.136 147.451 36.136C146.843 36.136 146.365 35.944 146.019 35.56C145.677 35.176 145.507 34.6453 145.507 33.968C145.507 33.2533 145.675 32.6987 146.011 32.304C146.352 31.904 146.827 31.704 147.435 31.704C147.925 31.704 148.32 31.8427 148.619 32.12C148.923 32.392 149.107 32.7733 149.171 33.264H148.419C148.371 32.9813 148.256 32.7627 148.075 32.608C147.899 32.448 147.685 32.368 147.435 32.368C147.077 32.368 146.795 32.5013 146.587 32.768C146.379 33.0293 146.275 33.3947 146.275 33.864C146.275 34.3707 146.376 34.7653 146.579 35.048C146.787 35.3307 147.072 35.472 147.435 35.472C147.941 35.472 148.269 35.1467 148.419 34.496ZM150.623 31.808H151.351V32.336C151.452 32.224 151.554 32.128 151.655 32.048C151.756 31.968 151.852 31.9013 151.943 31.848C152.119 31.752 152.327 31.704 152.567 31.704C152.823 31.704 153.028 31.7547 153.183 31.856C153.338 31.952 153.482 32.112 153.615 32.336C153.818 32.1173 154.015 31.9573 154.207 31.856C154.399 31.7547 154.618 31.704 154.863 31.704C155.711 31.704 156.135 32.184 156.135 33.144V36H155.407V33.264C155.407 32.9493 155.351 32.7227 155.239 32.584C155.132 32.44 154.954 32.368 154.703 32.368C154.516 32.368 154.338 32.424 154.167 32.536C153.996 32.6587 153.887 32.7973 153.839 32.952C153.77 33.1013 153.735 33.376 153.735 33.776V36H153.007V33.368C153.007 32.984 152.967 32.72 152.887 32.576C152.796 32.4373 152.631 32.368 152.391 32.368C152.167 32.368 151.967 32.4293 151.791 32.552C151.615 32.6693 151.487 32.8373 151.407 33.056C151.37 33.1627 151.351 33.3973 151.351 33.76V36H150.623V31.808ZM157.484 31.808H158.212V34.472C158.212 34.8347 158.273 35.0907 158.396 35.24C158.519 35.384 158.727 35.456 159.02 35.456C159.377 35.456 159.66 35.3093 159.868 35.016C160.028 34.792 160.108 34.432 160.108 33.936V31.808H160.828V35.984H160.148V35.336C159.892 35.848 159.457 36.104 158.844 36.104C158.332 36.104 157.977 35.968 157.78 35.696C157.583 35.4187 157.484 35.024 157.484 34.512V31.808ZM162.45 37.72H161.874C162.135 37.3093 162.359 36.9067 162.546 36.512C162.711 36.144 162.834 35.7493 162.914 35.328C162.951 35.1093 162.981 34.8907 163.002 34.672C163.023 34.448 163.034 34.2133 163.034 33.968C163.034 33.232 162.949 32.6027 162.778 32.08C162.613 31.552 162.327 30.9493 161.922 30.272H162.45C162.919 30.864 163.269 31.448 163.498 32.024C163.605 32.312 163.685 32.6133 163.738 32.928C163.791 33.2427 163.818 33.5893 163.818 33.968C163.818 34.688 163.706 35.328 163.482 35.888C163.258 36.4427 162.914 37.0533 162.45 37.72Z" fill="#AFAFAF"/>
</svg>
