<svg width="162" height="26" viewBox="0 0 162 26" fill="none" xmlns="http://www.w3.org/2000/svg">
<path d="M79.29 15.65V9.02C79.29 8.14 79.64 7.415 80.34 6.845C80.49 6.735 80.65 6.64 80.82 6.56C80.99 6.48 81.165 6.42 81.345 6.38C81.525 6.34 81.73 6.31 81.96 6.29C82.2 6.27 82.51 6.26 82.89 6.26H86.94V15.65H87.915V17H78.435V15.65H79.29ZM80.79 15.65H85.455V7.61H82.935C82.205 7.61 81.665 7.73 81.315 7.97C80.965 8.21 80.79 8.605 80.79 9.155V15.65ZM89.8951 13.085C89.8951 11.785 90.2101 10.77 90.8401 10.04C91.4801 9.31 92.3501 8.945 93.4501 8.945C94.5501 8.945 95.4201 9.305 96.0601 10.025C96.7001 10.745 97.0201 11.765 97.0201 13.085C97.0201 14.375 96.7001 15.385 96.0601 16.115C95.4301 16.835 94.5601 17.195 93.4501 17.195C92.3401 17.195 91.4701 16.83 90.8401 16.1C90.2101 15.36 89.8951 14.355 89.8951 13.085ZM91.3351 13.085C91.3351 13.985 91.5251 14.695 91.9051 15.215C92.2851 15.725 92.8001 15.98 93.4501 15.98C94.1301 15.98 94.6551 15.72 95.0251 15.2C95.3951 14.68 95.5801 13.955 95.5801 13.025C95.5801 12.415 95.4951 11.905 95.3251 11.495C95.1651 11.065 94.9201 10.74 94.5901 10.52C94.2701 10.3 93.8901 10.19 93.4501 10.19C93.0101 10.19 92.6351 10.3 92.3251 10.52C92.0151 10.74 91.7701 11.08 91.5901 11.54C91.4201 11.99 91.3351 12.505 91.3351 13.085ZM104.88 14.18H106.29C106.18 14.97 105.98 15.57 105.69 15.98C105.02 16.83 104.145 17.255 103.065 17.255C101.925 17.255 101.03 16.895 100.38 16.175C99.7395 15.455 99.4195 14.46 99.4195 13.19C99.4195 11.85 99.7345 10.81 100.365 10.07C101.005 9.32 101.895 8.945 103.035 8.945C103.955 8.945 104.695 9.205 105.255 9.725C105.825 10.235 106.17 10.95 106.29 11.87H104.88C104.79 11.34 104.575 10.93 104.235 10.64C103.905 10.34 103.505 10.19 103.035 10.19C102.365 10.19 101.835 10.44 101.445 10.94C101.055 11.43 100.86 12.115 100.86 12.995C100.86 13.945 101.05 14.685 101.43 15.215C101.82 15.745 102.355 16.01 103.035 16.01C103.985 16.01 104.6 15.4 104.88 14.18ZM109.013 9.14H110.378V10.13C110.568 9.92 110.758 9.74 110.948 9.59C111.138 9.44 111.318 9.315 111.488 9.215C111.818 9.035 112.208 8.945 112.658 8.945C113.138 8.945 113.523 9.04 113.813 9.23C114.103 9.41 114.373 9.71 114.623 10.13C115.003 9.72 115.373 9.42 115.733 9.23C116.093 9.04 116.503 8.945 116.963 8.945C118.553 8.945 119.348 9.845 119.348 11.645V17H117.983V11.87C117.983 11.28 117.878 10.855 117.668 10.595C117.468 10.325 117.133 10.19 116.663 10.19C116.313 10.19 115.978 10.295 115.658 10.505C115.338 10.735 115.133 10.995 115.043 11.285C114.913 11.565 114.848 12.08 114.848 12.83V17H113.483V12.065C113.483 11.345 113.408 10.85 113.258 10.58C113.088 10.32 112.778 10.19 112.328 10.19C111.908 10.19 111.533 10.305 111.203 10.535C110.873 10.755 110.633 11.07 110.483 11.48C110.413 11.68 110.378 12.12 110.378 12.8V17H109.013V9.14ZM121.877 11.585C121.877 11.265 121.912 10.985 121.982 10.745C122.062 10.495 122.177 10.26 122.327 10.04C122.847 9.31 123.747 8.945 125.027 8.945C125.987 8.945 126.727 9.125 127.247 9.485C127.777 9.845 128.042 10.5 128.042 11.45V15.155C128.042 15.435 128.072 15.645 128.132 15.785C128.202 15.915 128.327 15.98 128.507 15.98L128.642 15.95H128.897V16.97C128.747 17.02 128.597 17.06 128.447 17.09C128.307 17.12 128.182 17.135 128.072 17.135C127.312 17.135 126.897 16.74 126.827 15.95C126.057 16.78 125.152 17.195 124.112 17.195C123.352 17.195 122.732 16.98 122.252 16.55C121.782 16.11 121.547 15.55 121.547 14.87C121.547 13.77 121.992 13.06 122.882 12.74C123.782 12.42 125.057 12.185 126.707 12.035V11.645C126.707 11.115 126.582 10.74 126.332 10.52C126.082 10.3 125.647 10.19 125.027 10.19C124.467 10.19 124.047 10.3 123.767 10.52C123.487 10.74 123.327 11.095 123.287 11.585H121.877ZM126.692 13.085C125.182 13.295 124.232 13.495 123.842 13.685C123.292 13.885 123.017 14.245 123.017 14.765C123.017 15.155 123.147 15.45 123.407 15.65C123.657 15.87 124.007 15.98 124.457 15.98C125.057 15.98 125.577 15.8 126.017 15.44C126.467 15.08 126.692 14.65 126.692 14.15V13.085ZM135.235 17H131.035V9.14H134.905C135.705 9.14 136.31 9.32 136.72 9.68C137.11 10.06 137.305 10.515 137.305 11.045C137.305 11.855 136.88 12.44 136.03 12.8C137.08 13.07 137.605 13.79 137.605 14.96C137.605 15.48 137.355 15.95 136.855 16.37C136.365 16.79 135.825 17 135.235 17ZM134.905 13.46H132.4V15.785H134.965C135.335 15.785 135.635 15.68 135.865 15.47C136.105 15.26 136.225 14.99 136.225 14.66C136.225 14.34 136.105 14.06 135.865 13.82C135.625 13.58 135.305 13.46 134.905 13.46ZM134.515 12.275C135.475 12.275 135.955 11.89 135.955 11.12C135.955 10.84 135.825 10.63 135.565 10.49C135.315 10.34 134.965 10.265 134.515 10.265H132.4V12.275H134.515ZM140.062 9.14H141.427V12.305L144.622 9.14H146.392L143.407 12.065L146.467 17H144.817L142.492 12.995L141.427 13.985V17H140.062V9.14ZM149.22 11.585C149.22 11.265 149.255 10.985 149.325 10.745C149.405 10.495 149.52 10.26 149.67 10.04C150.19 9.31 151.09 8.945 152.37 8.945C153.33 8.945 154.07 9.125 154.59 9.485C155.12 9.845 155.385 10.5 155.385 11.45V15.155C155.385 15.435 155.415 15.645 155.475 15.785C155.545 15.915 155.67 15.98 155.85 15.98L155.985 15.95H156.24V16.97C156.09 17.02 155.94 17.06 155.79 17.09C155.65 17.12 155.525 17.135 155.415 17.135C154.655 17.135 154.24 16.74 154.17 15.95C153.4 16.78 152.495 17.195 151.455 17.195C150.695 17.195 150.075 16.98 149.595 16.55C149.125 16.11 148.89 15.55 148.89 14.87C148.89 13.77 149.335 13.06 150.225 12.74C151.125 12.42 152.4 12.185 154.05 12.035V11.645C154.05 11.115 153.925 10.74 153.675 10.52C153.425 10.3 152.99 10.19 152.37 10.19C151.81 10.19 151.39 10.3 151.11 10.52C150.83 10.74 150.67 11.095 150.63 11.585H149.22ZM154.035 13.085C152.525 13.295 151.575 13.495 151.185 13.685C150.635 13.885 150.36 14.245 150.36 14.765C150.36 15.155 150.49 15.45 150.75 15.65C151 15.87 151.35 15.98 151.8 15.98C152.4 15.98 152.92 15.8 153.36 15.44C153.81 15.08 154.035 14.65 154.035 14.15V13.085Z" fill="black"/>
<circle cx="11.5" cy="14.5" r="11" stroke="#424242"/>
<circle cx="11.5" cy="14.5" r="6" stroke="#424242"/>
<path d="M38.542 1H56.9572C57.2334 1 57.4572 1.22386 57.4572 1.5V4.75M57.4572 4.75H62.0058C62.2074 4.75 62.3893 4.87105 62.4671 5.05701L65.9996 13.5M57.4572 4.75V13.5M65.9996 13.5H57.4572M65.9996 13.5V21.75C65.9996 22.0261 65.7758 22.25 65.4996 22.25H61.1183M57.4572 13.5V17.875M53.7962 22.25H42.203" stroke="black"/>
<path d="M61.2289 21.625C61.2289 23.7765 59.5292 25.5 57.4577 25.5C55.3862 25.5 53.6865 23.7765 53.6865 21.625C53.6865 19.4735 55.3862 17.75 57.4577 17.75C59.5292 17.75 61.2289 19.4735 61.2289 21.625Z" stroke="black"/>
<path d="M42.9232 21.625C42.9232 23.7765 41.2236 25.5 39.152 25.5C37.0805 25.5 35.3809 23.7765 35.3809 21.625C35.3809 19.4735 37.0805 17.75 39.152 17.75C41.2236 17.75 42.9232 19.4735 42.9232 21.625Z" stroke="black"/>
<rect x="34.8809" y="7.25" width="10.9831" height="1.25" fill="black"/>
<rect x="30" y="12.25" width="10.9831" height="1.25" fill="black"/>
</svg>
