<svg width="199" height="23" viewBox="0 0 199 23" fill="none" xmlns="http://www.w3.org/2000/svg">
<path d="M74.455 9.437C74.455 8.44033 74.637 7.56933 75.001 6.824C75.3737 6.07867 75.9067 5.50667 76.6 5.108C77.2933 4.70933 78.095 4.51 79.005 4.51C79.6897 4.51 80.305 4.62267 80.851 4.848C81.4057 5.06467 81.878 5.381 82.268 5.797C82.658 6.213 82.957 6.707 83.165 7.279C83.373 7.851 83.477 8.514 83.477 9.268C83.477 10.178 83.2993 11.01 82.944 11.764C82.5973 12.5093 82.0773 13.0987 81.384 13.532C80.6993 13.9567 79.8803 14.169 78.927 14.169C77.9997 14.169 77.2023 13.9783 76.535 13.597C75.8677 13.2157 75.352 12.6653 74.988 11.946C74.6327 11.218 74.455 10.3817 74.455 9.437ZM75.82 9.411C75.82 10.503 76.1017 11.374 76.665 12.024C77.2283 12.674 77.9997 12.999 78.979 12.999C79.967 12.999 80.7383 12.6697 81.293 12.011C81.8563 11.3437 82.138 10.4293 82.138 9.268C82.138 8.904 82.1077 8.566 82.047 8.254C81.9863 7.93333 81.891 7.63433 81.761 7.357C81.501 6.811 81.1283 6.395 80.643 6.109C80.1663 5.823 79.6117 5.68 78.979 5.68C77.9823 5.68 77.2067 6.01367 76.652 6.681C76.0973 7.34833 75.82 8.25833 75.82 9.411ZM87.0498 10.958V14H85.8668V7.188H87.0498V9.905H90.1308V7.188H91.3008V14H90.1308V10.958H87.0498ZM99.0756 7.188V14H97.8796V10.438C97.8796 9.82267 97.8362 9.37633 97.7496 9.099C97.6716 8.82167 97.4896 8.58767 97.2036 8.397C96.9176 8.19767 96.5709 8.098 96.1636 8.098C95.6696 8.098 95.3186 8.23233 95.1106 8.501C94.9026 8.761 94.7986 9.216 94.7986 9.866V14H93.6286V9.671C93.6286 9.28967 93.6416 9.01233 93.6676 8.839C93.6676 8.75233 93.6719 8.69167 93.6806 8.657C93.6892 8.62233 93.7326 8.48367 93.8106 8.241C93.9579 7.877 94.2049 7.578 94.5516 7.344C94.8982 7.12733 95.3142 7.019 95.7996 7.019C96.2329 7.019 96.6142 7.097 96.9436 7.253C97.2642 7.42633 97.5762 7.708 97.8796 8.098V7.188H99.0756ZM101.462 9.307C101.462 9.02967 101.492 8.787 101.553 8.579C101.622 8.36233 101.722 8.15867 101.852 7.968C102.302 7.33533 103.082 7.019 104.192 7.019C105.024 7.019 105.665 7.175 106.116 7.487C106.575 7.799 106.805 8.36667 106.805 9.19V12.401C106.805 12.6437 106.831 12.8257 106.883 12.947C106.943 13.0597 107.052 13.116 107.208 13.116L107.325 13.09H107.546V13.974C107.416 14.0173 107.286 14.052 107.156 14.078C107.034 14.104 106.926 14.117 106.831 14.117C106.172 14.117 105.812 13.7747 105.752 13.09C105.084 13.8093 104.3 14.169 103.399 14.169C102.74 14.169 102.203 13.9827 101.787 13.61C101.379 13.2287 101.176 12.7433 101.176 12.154C101.176 11.2007 101.561 10.5853 102.333 10.308C103.113 10.0307 104.218 9.827 105.648 9.697V9.359C105.648 8.89967 105.539 8.57467 105.323 8.384C105.106 8.19333 104.729 8.098 104.192 8.098C103.706 8.098 103.342 8.19333 103.1 8.384C102.857 8.57467 102.718 8.88233 102.684 9.307H101.462ZM105.635 10.607C104.326 10.789 103.503 10.9623 103.165 11.127C102.688 11.3003 102.45 11.6123 102.45 12.063C102.45 12.401 102.562 12.6567 102.788 12.83C103.004 13.0207 103.308 13.116 103.698 13.116C104.218 13.116 104.668 12.96 105.05 12.648C105.44 12.336 105.635 11.9633 105.635 11.53V10.607ZM109.399 7.188H110.582V11.517C110.582 12.1063 110.681 12.5223 110.881 12.765C111.08 12.999 111.418 13.116 111.895 13.116C112.475 13.116 112.935 12.8777 113.273 12.401C113.533 12.037 113.663 11.452 113.663 10.646V7.188H114.833V13.974H113.728V12.921C113.312 13.753 112.605 14.169 111.609 14.169C110.777 14.169 110.2 13.948 109.88 13.506C109.559 13.0553 109.399 12.414 109.399 11.582V7.188ZM112.077 6.226C111.548 6.226 111.132 6.07433 110.829 5.771C110.534 5.46767 110.387 5.11667 110.387 4.718H111.414C111.414 4.848 111.466 4.98667 111.57 5.134C111.682 5.27267 111.851 5.342 112.077 5.342C112.302 5.342 112.458 5.277 112.545 5.147C112.631 5.00833 112.683 4.86533 112.701 4.718H113.715C113.715 5.09933 113.576 5.446 113.299 5.758C113.021 6.07 112.614 6.226 112.077 6.226ZM118.519 10.958V14H117.336V7.188H118.519V9.905H121.6V7.188H122.77V14H121.6V10.958H118.519ZM130.635 10.958V14H129.452V7.188H130.635V9.905H133.716V7.188H134.886V14H133.716V10.958H130.635ZM137.11 9.307C137.11 9.02967 137.14 8.787 137.201 8.579C137.27 8.36233 137.37 8.15867 137.5 7.968C137.951 7.33533 138.731 7.019 139.84 7.019C140.672 7.019 141.313 7.175 141.764 7.487C142.223 7.799 142.453 8.36667 142.453 9.19V12.401C142.453 12.6437 142.479 12.8257 142.531 12.947C142.592 13.0597 142.7 13.116 142.856 13.116L142.973 13.09H143.194V13.974C143.064 14.0173 142.934 14.052 142.804 14.078C142.683 14.104 142.574 14.117 142.479 14.117C141.82 14.117 141.461 13.7747 141.4 13.09C140.733 13.8093 139.948 14.169 139.047 14.169C138.388 14.169 137.851 13.9827 137.435 13.61C137.028 13.2287 136.824 12.7433 136.824 12.154C136.824 11.2007 137.21 10.5853 137.981 10.308C138.761 10.0307 139.866 9.827 141.296 9.697V9.359C141.296 8.89967 141.188 8.57467 140.971 8.384C140.754 8.19333 140.377 8.098 139.84 8.098C139.355 8.098 138.991 8.19333 138.748 8.384C138.505 8.57467 138.367 8.88233 138.332 9.307H137.11ZM141.283 10.607C139.974 10.789 139.151 10.9623 138.813 11.127C138.336 11.3003 138.098 11.6123 138.098 12.063C138.098 12.401 138.211 12.6567 138.436 12.83C138.653 13.0207 138.956 13.116 139.346 13.116C139.866 13.116 140.317 12.96 140.698 12.648C141.088 12.336 141.283 11.9633 141.283 11.53V10.607ZM153.861 11.556H155.083C154.987 12.2407 154.814 12.7607 154.563 13.116C153.982 13.8527 153.224 14.221 152.288 14.221C151.3 14.221 150.524 13.909 149.961 13.285C149.406 12.661 149.129 11.7987 149.129 10.698C149.129 9.53667 149.402 8.63533 149.948 7.994C150.502 7.344 151.274 7.019 152.262 7.019C153.059 7.019 153.7 7.24433 154.186 7.695C154.68 8.137 154.979 8.75667 155.083 9.554H153.861C153.783 9.09467 153.596 8.73933 153.302 8.488C153.016 8.228 152.669 8.098 152.262 8.098C151.681 8.098 151.222 8.31467 150.884 8.748C150.546 9.17267 150.377 9.76633 150.377 10.529C150.377 11.3523 150.541 11.9937 150.871 12.453C151.209 12.9123 151.672 13.142 152.262 13.142C153.085 13.142 153.618 12.6133 153.861 11.556ZM157.443 9.307C157.443 9.02967 157.473 8.787 157.534 8.579C157.603 8.36233 157.703 8.15867 157.833 7.968C158.284 7.33533 159.064 7.019 160.173 7.019C161.005 7.019 161.646 7.175 162.097 7.487C162.556 7.799 162.786 8.36667 162.786 9.19V12.401C162.786 12.6437 162.812 12.8257 162.864 12.947C162.925 13.0597 163.033 13.116 163.189 13.116L163.306 13.09H163.527V13.974C163.397 14.0173 163.267 14.052 163.137 14.078C163.016 14.104 162.907 14.117 162.812 14.117C162.153 14.117 161.794 13.7747 161.733 13.09C161.066 13.8093 160.281 14.169 159.38 14.169C158.721 14.169 158.184 13.9827 157.768 13.61C157.361 13.2287 157.157 12.7433 157.157 12.154C157.157 11.2007 157.543 10.5853 158.314 10.308C159.094 10.0307 160.199 9.827 161.629 9.697V9.359C161.629 8.89967 161.521 8.57467 161.304 8.384C161.087 8.19333 160.71 8.098 160.173 8.098C159.688 8.098 159.324 8.19333 159.081 8.384C158.838 8.57467 158.7 8.88233 158.665 9.307H157.443ZM161.616 10.607C160.307 10.789 159.484 10.9623 159.146 11.127C158.669 11.3003 158.431 11.6123 158.431 12.063C158.431 12.401 158.544 12.6567 158.769 12.83C158.986 13.0207 159.289 13.116 159.679 13.116C160.199 13.116 160.65 12.96 161.031 12.648C161.421 12.336 161.616 11.9633 161.616 11.53V10.607ZM165.38 7.188H166.563V11.517C166.563 12.1063 166.663 12.5223 166.862 12.765C167.061 12.999 167.399 13.116 167.876 13.116C168.457 13.116 168.916 12.8777 169.254 12.401C169.514 12.037 169.644 11.452 169.644 10.646V7.188H170.814V13.974H169.709V12.921C169.293 13.753 168.587 14.169 167.59 14.169C166.758 14.169 166.182 13.948 165.861 13.506C165.54 13.0553 165.38 12.414 165.38 11.582V7.188ZM168.058 6.226C167.529 6.226 167.113 6.07433 166.81 5.771C166.515 5.46767 166.368 5.11667 166.368 4.718H167.395C167.395 4.848 167.447 4.98667 167.551 5.134C167.664 5.27267 167.833 5.342 168.058 5.342C168.283 5.342 168.439 5.277 168.526 5.147C168.613 5.00833 168.665 4.86533 168.682 4.718H169.696C169.696 5.09933 169.557 5.446 169.28 5.758C169.003 6.07 168.595 6.226 168.058 6.226ZM173.317 7.188H174.5V8.046C174.665 7.864 174.829 7.708 174.994 7.578C175.159 7.448 175.315 7.33967 175.462 7.253C175.748 7.097 176.086 7.019 176.476 7.019C176.892 7.019 177.226 7.10133 177.477 7.266C177.728 7.422 177.962 7.682 178.179 8.046C178.508 7.69067 178.829 7.43067 179.141 7.266C179.453 7.10133 179.808 7.019 180.207 7.019C181.585 7.019 182.274 7.799 182.274 9.359V14H181.091V9.554C181.091 9.04267 181 8.67433 180.818 8.449C180.645 8.215 180.354 8.098 179.947 8.098C179.644 8.098 179.353 8.189 179.076 8.371C178.799 8.57033 178.621 8.79567 178.543 9.047C178.43 9.28967 178.374 9.736 178.374 10.386V14H177.191V9.723C177.191 9.099 177.126 8.67 176.996 8.436C176.849 8.21067 176.58 8.098 176.19 8.098C175.826 8.098 175.501 8.19767 175.215 8.397C174.929 8.58767 174.721 8.86067 174.591 9.216C174.53 9.38933 174.5 9.77067 174.5 10.36V14H173.317V7.188ZM190.264 10.958H185.311C185.311 11.66 185.48 12.1973 185.818 12.57C186.165 12.934 186.642 13.116 187.248 13.116C188.176 13.116 188.739 12.661 188.938 11.751H190.16C190.004 12.505 189.658 13.0987 189.12 13.532C188.592 13.9567 187.95 14.169 187.196 14.169C186.234 14.169 185.476 13.8527 184.921 13.22C184.367 12.5787 184.089 11.7077 184.089 10.607C184.089 9.515 184.375 8.64833 184.947 8.007C185.519 7.36567 186.295 7.045 187.274 7.045C188.28 7.045 189.029 7.357 189.523 7.981C190.017 8.59633 190.264 9.41533 190.264 10.438V10.958ZM189.068 9.905C189.068 9.62767 189.021 9.38067 188.925 9.164C188.839 8.93867 188.709 8.73933 188.535 8.566C188.223 8.254 187.794 8.098 187.248 8.098C186.174 8.098 185.541 8.70033 185.35 9.905H189.068Z" fill="#AFAFAF"/>
<circle cx="11.5" cy="11.5" r="11" stroke="#AFAFAF"/>
<rect x="35.5" y="1.5" width="27" height="18" rx="0.5" stroke="#AFAFAF"/>
<rect x="36" y="7" width="26" height="1" fill="#AFAFAF"/>
<rect x="57" y="16" width="3" height="1" fill="#AFAFAF"/>
</svg>
