<svg width="199" height="74" viewBox="0 0 199 74" fill="none" xmlns="http://www.w3.org/2000/svg">
<path d="M9.96 6.605H8.505C8.115 5.135 7.12 4.4 5.52 4.4C4.45 4.4 3.61 4.785 3 5.555C2.4 6.325 2.1 7.365 2.1 8.675C2.1 9.975 2.39 10.995 2.97 11.735C3.55 12.475 4.365 12.845 5.415 12.845C6.235 12.845 6.915 12.605 7.455 12.125C8.005 11.635 8.355 10.935 8.505 10.025H9.96C9.83 11.245 9.36 12.245 8.55 13.025C7.74 13.805 6.71 14.195 5.46 14.195C4.44 14.195 3.56 13.975 2.82 13.535C2.09 13.085 1.525 12.445 1.125 11.615C0.725 10.785 0.525 9.825 0.525 8.735C0.525 7.105 0.955 5.75 1.815 4.67C2.675 3.59 3.9 3.05 5.49 3.05C6.35 3.05 7.1 3.195 7.74 3.485C8.39 3.775 8.905 4.185 9.285 4.715C9.675 5.245 9.9 5.875 9.96 6.605ZM12.667 6.14H14.032V7.19C14.432 6.73 14.807 6.41 15.157 6.23C15.507 6.04 15.937 5.945 16.447 5.945C17.007 5.945 17.492 6.075 17.902 6.335C18.312 6.585 18.587 6.91 18.727 7.31C18.867 7.7 18.937 8.265 18.937 9.005V14H17.587V9.23C17.587 8.48 17.467 7.955 17.227 7.655C17.007 7.345 16.612 7.19 16.042 7.19C15.582 7.19 15.187 7.3 14.857 7.52C14.537 7.73 14.317 8.02 14.197 8.39C14.117 8.61 14.072 8.79 14.062 8.93L14.032 9.89V14H12.667V6.14ZM21.068 10.085C21.068 8.785 21.383 7.77 22.013 7.04C22.653 6.31 23.523 5.945 24.623 5.945C25.723 5.945 26.593 6.305 27.233 7.025C27.873 7.745 28.193 8.765 28.193 10.085C28.193 11.375 27.873 12.385 27.233 13.115C26.603 13.835 25.733 14.195 24.623 14.195C23.513 14.195 22.643 13.83 22.013 13.1C21.383 12.36 21.068 11.355 21.068 10.085ZM22.508 10.085C22.508 10.985 22.698 11.695 23.078 12.215C23.458 12.725 23.973 12.98 24.623 12.98C25.303 12.98 25.828 12.72 26.198 12.2C26.568 11.68 26.753 10.955 26.753 10.025C26.753 9.415 26.668 8.905 26.498 8.495C26.338 8.065 26.093 7.74 25.763 7.52C25.443 7.3 25.063 7.19 24.623 7.19C24.183 7.19 23.808 7.3 23.498 7.52C23.188 7.74 22.943 8.08 22.763 8.54C22.593 8.99 22.508 9.505 22.508 10.085ZM36.0524 11.18H37.4624C37.3524 11.97 37.1524 12.57 36.8624 12.98C36.1924 13.83 35.3174 14.255 34.2374 14.255C33.0974 14.255 32.2024 13.895 31.5524 13.175C30.9124 12.455 30.5924 11.46 30.5924 10.19C30.5924 8.85 30.9074 7.81 31.5374 7.07C32.1774 6.32 33.0674 5.945 34.2074 5.945C35.1274 5.945 35.8674 6.205 36.4274 6.725C36.9974 7.235 37.3424 7.95 37.4624 8.87H36.0524C35.9624 8.34 35.7474 7.93 35.4074 7.64C35.0774 7.34 34.6774 7.19 34.2074 7.19C33.5374 7.19 33.0074 7.44 32.6174 7.94C32.2274 8.43 32.0324 9.115 32.0324 9.995C32.0324 10.945 32.2224 11.685 32.6024 12.215C32.9924 12.745 33.5274 13.01 34.2074 13.01C35.1574 13.01 35.7724 12.4 36.0524 11.18ZM39.7506 10.085C39.7506 8.785 40.0656 7.77 40.6956 7.04C41.3356 6.31 42.2056 5.945 43.3056 5.945C44.4056 5.945 45.2756 6.305 45.9156 7.025C46.5556 7.745 46.8756 8.765 46.8756 10.085C46.8756 11.375 46.5556 12.385 45.9156 13.115C45.2856 13.835 44.4156 14.195 43.3056 14.195C42.1956 14.195 41.3256 13.83 40.6956 13.1C40.0656 12.36 39.7506 11.355 39.7506 10.085ZM41.1906 10.085C41.1906 10.985 41.3806 11.695 41.7606 12.215C42.1406 12.725 42.6556 12.98 43.3056 12.98C43.9856 12.98 44.5106 12.72 44.8806 12.2C45.2506 11.68 45.4356 10.955 45.4356 10.025C45.4356 9.415 45.3506 8.905 45.1806 8.495C45.0206 8.065 44.7756 7.74 44.4456 7.52C44.1256 7.3 43.7456 7.19 43.3056 7.19C42.8656 7.19 42.4906 7.3 42.1806 7.52C41.8706 7.74 41.6256 8.08 41.4456 8.54C41.2756 8.99 41.1906 9.505 41.1906 10.085ZM49.245 9.56C49.245 8.83 49.28 8.18 49.35 7.61C49.42 7.04 49.53 6.545 49.68 6.125C49.97 5.285 50.38 4.69 50.91 4.34C51.44 3.99 52.09 3.815 52.86 3.815C53.23 3.815 53.505 3.76 53.685 3.65C53.875 3.54 53.97 3.41 53.97 3.26H55.29C55.29 3.74 55.075 4.16 54.645 4.52C54.215 4.88 53.62 5.06 52.86 5.06C51.63 5.06 50.895 5.685 50.655 6.935C50.885 6.665 51.195 6.435 51.585 6.245C51.985 6.045 52.4 5.945 52.83 5.945C53.93 5.945 54.8 6.305 55.44 7.025C56.08 7.745 56.4 8.765 56.4 10.085C56.4 11.375 56.08 12.385 55.44 13.115C54.81 13.835 53.94 14.195 52.83 14.195C51.67 14.195 50.78 13.83 50.16 13.1C49.55 12.37 49.245 11.19 49.245 9.56ZM52.83 7.19C52.39 7.19 52.015 7.3 51.705 7.52C51.395 7.74 51.15 8.08 50.97 8.54C50.8 8.99 50.715 9.505 50.715 10.085C50.715 10.985 50.905 11.695 51.285 12.215C51.665 12.725 52.18 12.98 52.83 12.98C53.51 12.98 54.035 12.72 54.405 12.2C54.775 11.68 54.96 10.955 54.96 10.025C54.96 9.415 54.875 8.905 54.705 8.495C54.545 8.065 54.3 7.74 53.97 7.52C53.65 7.3 53.27 7.19 52.83 7.19ZM63.5777 10.085C63.5777 8.785 63.8927 7.77 64.5227 7.04C65.1627 6.31 66.0327 5.945 67.1327 5.945C68.2327 5.945 69.1027 6.305 69.7427 7.025C70.3827 7.745 70.7027 8.765 70.7027 10.085C70.7027 11.375 70.3827 12.385 69.7427 13.115C69.1127 13.835 68.2427 14.195 67.1327 14.195C66.0227 14.195 65.1527 13.83 64.5227 13.1C63.8927 12.36 63.5777 11.355 63.5777 10.085ZM65.0177 10.085C65.0177 10.985 65.2077 11.695 65.5877 12.215C65.9677 12.725 66.4827 12.98 67.1327 12.98C67.8127 12.98 68.3377 12.72 68.7077 12.2C69.0777 11.68 69.2627 10.955 69.2627 10.025C69.2627 9.415 69.1777 8.905 69.0077 8.495C68.8477 8.065 68.6027 7.74 68.2727 7.52C67.9527 7.3 67.5727 7.19 67.1327 7.19C66.6927 7.19 66.3177 7.3 66.0077 7.52C65.6977 7.74 65.4527 8.08 65.2727 8.54C65.1027 8.99 65.0177 9.505 65.0177 10.085ZM73.5371 6.14H74.9021V7.19C75.3021 6.73 75.6771 6.41 76.0271 6.23C76.3771 6.04 76.8071 5.945 77.3171 5.945C77.8771 5.945 78.3621 6.075 78.7721 6.335C79.1821 6.585 79.4571 6.91 79.5971 7.31C79.7371 7.7 79.8071 8.265 79.8071 9.005V14H78.4571V9.23C78.4571 8.48 78.3371 7.955 78.0971 7.655C77.8771 7.345 77.4821 7.19 76.9121 7.19C76.4521 7.19 76.0571 7.3 75.7271 7.52C75.4071 7.73 75.1871 8.02 75.0671 8.39C74.9871 8.61 74.9421 8.79 74.9321 8.93L74.9021 9.89V14H73.5371V6.14ZM88.7781 6.14V14H87.3981V9.89C87.3981 9.18 87.3481 8.665 87.2481 8.345C87.1581 8.025 86.9481 7.755 86.6181 7.535C86.2881 7.305 85.8881 7.19 85.4181 7.19C84.8481 7.19 84.4431 7.345 84.2031 7.655C83.9631 7.955 83.8431 8.48 83.8431 9.23V14H82.4931V9.005C82.4931 8.565 82.5081 8.245 82.5381 8.045C82.5381 7.945 82.5431 7.875 82.5531 7.835C82.5631 7.795 82.6131 7.635 82.7031 7.355C82.8731 6.935 83.1581 6.59 83.5581 6.32C83.9581 6.07 84.4381 5.945 84.9981 5.945C85.4981 5.945 85.9381 6.035 86.3181 6.215C86.6881 6.415 87.0481 6.74 87.3981 7.19V6.14H88.7781ZM91.5313 8.585C91.5313 8.265 91.5663 7.985 91.6363 7.745C91.7163 7.495 91.8313 7.26 91.9813 7.04C92.5013 6.31 93.4013 5.945 94.6813 5.945C95.6413 5.945 96.3813 6.125 96.9013 6.485C97.4313 6.845 97.6963 7.5 97.6963 8.45V12.155C97.6963 12.435 97.7263 12.645 97.7863 12.785C97.8563 12.915 97.9813 12.98 98.1613 12.98L98.2963 12.95H98.5513V13.97C98.4013 14.02 98.2513 14.06 98.1013 14.09C97.9613 14.12 97.8363 14.135 97.7263 14.135C96.9663 14.135 96.5513 13.74 96.4813 12.95C95.7113 13.78 94.8063 14.195 93.7663 14.195C93.0063 14.195 92.3863 13.98 91.9063 13.55C91.4363 13.11 91.2013 12.55 91.2013 11.87C91.2013 10.77 91.6463 10.06 92.5363 9.74C93.4363 9.42 94.7113 9.185 96.3613 9.035V8.645C96.3613 8.115 96.2363 7.74 95.9863 7.52C95.7363 7.3 95.3013 7.19 94.6813 7.19C94.1213 7.19 93.7013 7.3 93.4213 7.52C93.1413 7.74 92.9813 8.095 92.9413 8.585H91.5313ZM96.3463 10.085C94.8363 10.295 93.8863 10.495 93.4963 10.685C92.9463 10.885 92.6713 11.245 92.6713 11.765C92.6713 12.155 92.8013 12.45 93.0613 12.65C93.3113 12.87 93.6613 12.98 94.1113 12.98C94.7113 12.98 95.2313 12.8 95.6713 12.44C96.1213 12.08 96.3463 11.65 96.3463 11.15V10.085ZM100.689 6.14H102.054V7.13C102.244 6.92 102.434 6.74 102.624 6.59C102.814 6.44 102.994 6.315 103.164 6.215C103.494 6.035 103.884 5.945 104.334 5.945C104.814 5.945 105.199 6.04 105.489 6.23C105.779 6.41 106.049 6.71 106.299 7.13C106.679 6.72 107.049 6.42 107.409 6.23C107.769 6.04 108.179 5.945 108.639 5.945C110.229 5.945 111.024 6.845 111.024 8.645V14H109.659V8.87C109.659 8.28 109.554 7.855 109.344 7.595C109.144 7.325 108.809 7.19 108.339 7.19C107.989 7.19 107.654 7.295 107.334 7.505C107.014 7.735 106.809 7.995 106.719 8.285C106.589 8.565 106.524 9.08 106.524 9.83V14H105.159V9.065C105.159 8.345 105.084 7.85 104.934 7.58C104.764 7.32 104.454 7.19 104.004 7.19C103.584 7.19 103.209 7.305 102.879 7.535C102.549 7.755 102.309 8.07 102.159 8.48C102.089 8.68 102.054 9.12 102.054 9.8V14H100.689V6.14ZM117.754 14H113.554V6.14H114.919V9.275H117.484C117.974 9.275 118.414 9.37 118.804 9.56C119.204 9.75 119.534 10.025 119.794 10.385C120.054 10.735 120.184 11.16 120.184 11.66C120.184 12.31 119.924 12.865 119.404 13.325C118.894 13.775 118.344 14 117.754 14ZM117.424 10.46H114.919V12.785H117.484C117.854 12.785 118.154 12.68 118.384 12.47C118.624 12.26 118.744 11.99 118.744 11.66C118.744 11.34 118.624 11.06 118.384 10.82C118.144 10.58 117.824 10.46 117.424 10.46ZM122.854 14H121.504V6.14H122.854V14Z" fill="#313131"/>
<path d="M84.118 56.692H91.112V66H89.812V57.862H85.418V66H84.118V56.692ZM93.8131 59.188H94.9961V59.994C95.2734 59.6647 95.5724 59.4133 95.8931 59.24C96.2051 59.0927 96.5561 59.019 96.9461 59.019C97.7694 59.019 98.4194 59.331 98.8961 59.955C99.3727 60.5703 99.6111 61.4283 99.6111 62.529C99.6111 63.6297 99.3684 64.5137 98.8831 65.181C98.4064 65.8397 97.7477 66.169 96.9071 66.169C96.4824 66.169 96.1271 66.0997 95.8411 65.961C95.5551 65.8137 95.2734 65.5883 94.9961 65.285V68.626H93.8131V59.188ZM96.6601 60.098C96.1401 60.098 95.7241 60.319 95.4121 60.761C95.1001 61.203 94.9441 61.8183 94.9441 62.607C94.9441 63.361 95.0957 63.9677 95.3991 64.427C95.7111 64.8863 96.1314 65.116 96.6601 65.116C97.1627 65.116 97.5787 64.895 97.9081 64.453C98.2114 64.0023 98.3631 63.387 98.3631 62.607C98.3631 61.8183 98.2071 61.203 97.8951 60.761C97.5917 60.319 97.1801 60.098 96.6601 60.098ZM101.903 59.188H103.086V63.517C103.086 64.1063 103.185 64.5223 103.385 64.765C103.584 64.999 103.922 65.116 104.399 65.116C104.979 65.116 105.439 64.8777 105.777 64.401C106.037 64.037 106.167 63.452 106.167 62.646V59.188H107.337V65.974H106.232V64.921C105.816 65.753 105.109 66.169 104.113 66.169C103.281 66.169 102.704 65.948 102.384 65.506C102.063 65.0553 101.903 64.414 101.903 63.582V59.188ZM114.184 59.188H115.367V60.098C115.714 59.6993 116.039 59.422 116.342 59.266C116.645 59.1013 117.018 59.019 117.46 59.019C117.945 59.019 118.366 59.1317 118.721 59.357C119.076 59.5737 119.315 59.8553 119.436 60.202C119.557 60.54 119.618 61.0297 119.618 61.671V66H118.448V61.866C118.448 61.216 118.344 60.761 118.136 60.501C117.945 60.2323 117.603 60.098 117.109 60.098C116.71 60.098 116.368 60.1933 116.082 60.384C115.805 60.566 115.614 60.8173 115.51 61.138C115.441 61.3287 115.402 61.4847 115.393 61.606L115.367 62.438V66H114.184V59.188ZM121.465 62.607C121.465 61.4803 121.738 60.6007 122.284 59.968C122.838 59.3353 123.592 59.019 124.546 59.019C125.499 59.019 126.253 59.331 126.808 59.955C127.362 60.579 127.64 61.463 127.64 62.607C127.64 63.725 127.362 64.6003 126.808 65.233C126.262 65.857 125.508 66.169 124.546 66.169C123.584 66.169 122.83 65.8527 122.284 65.22C121.738 64.5787 121.465 63.7077 121.465 62.607ZM122.713 62.607C122.713 63.387 122.877 64.0023 123.207 64.453C123.536 64.895 123.982 65.116 124.546 65.116C125.135 65.116 125.59 64.8907 125.911 64.44C126.231 63.9893 126.392 63.361 126.392 62.555C126.392 62.0263 126.318 61.5843 126.171 61.229C126.032 60.8563 125.82 60.5747 125.534 60.384C125.256 60.1933 124.927 60.098 124.546 60.098C124.164 60.098 123.839 60.1933 123.571 60.384C123.302 60.5747 123.09 60.8693 122.934 61.268C122.786 61.658 122.713 62.1043 122.713 62.607ZM135.647 59.188V66H134.451V62.438C134.451 61.8227 134.408 61.3763 134.321 61.099C134.243 60.8217 134.061 60.5877 133.775 60.397C133.489 60.1977 133.143 60.098 132.735 60.098C132.241 60.098 131.89 60.2323 131.682 60.501C131.474 60.761 131.37 61.216 131.37 61.866V66H130.2V61.671C130.2 61.2897 130.213 61.0123 130.239 60.839C130.239 60.7523 130.244 60.6917 130.252 60.657C130.261 60.6223 130.304 60.4837 130.382 60.241C130.53 59.877 130.777 59.578 131.123 59.344C131.47 59.1273 131.886 59.019 132.371 59.019C132.805 59.019 133.186 59.097 133.515 59.253C133.836 59.4263 134.148 59.708 134.451 60.098V59.188H135.647ZM138.618 59.188L140.425 64.583L142.219 59.188H143.493L140.763 66.767C140.486 67.4517 140.226 67.9587 139.983 68.288C139.741 68.626 139.381 68.795 138.904 68.795C138.601 68.795 138.28 68.756 137.942 68.678V67.573C138.081 67.6163 138.207 67.651 138.319 67.677C138.432 67.703 138.536 67.716 138.631 67.716C138.909 67.716 139.125 67.6207 139.281 67.43C139.429 67.2133 139.606 66.7757 139.814 66.117L137.292 59.188H138.618ZM145.552 59.188H146.735V61.021C146.735 61.6363 146.826 62.061 147.008 62.295C147.198 62.5203 147.545 62.633 148.048 62.633C148.637 62.633 149.096 62.3903 149.426 61.905C149.686 61.567 149.816 60.995 149.816 60.189V59.188H150.986V65.974H149.881V62.464C149.482 63.2873 148.776 63.699 147.762 63.699C146.964 63.699 146.397 63.478 146.059 63.036C145.721 62.5853 145.552 61.9397 145.552 61.099V59.188ZM159.007 62.958H154.054C154.054 63.66 154.223 64.1973 154.561 64.57C154.908 64.934 155.385 65.116 155.991 65.116C156.919 65.116 157.482 64.661 157.681 63.751H158.903C158.747 64.505 158.401 65.0987 157.863 65.532C157.335 65.9567 156.693 66.169 155.939 66.169C154.977 66.169 154.219 65.8527 153.664 65.22C153.11 64.5787 152.832 63.7077 152.832 62.607C152.832 61.515 153.118 60.6483 153.69 60.007C154.262 59.3657 155.038 59.045 156.017 59.045C157.023 59.045 157.772 59.357 158.266 59.981C158.76 60.5963 159.007 61.4153 159.007 62.438V62.958ZM157.811 61.905C157.811 61.6277 157.764 61.3807 157.668 61.164C157.582 60.9387 157.452 60.7393 157.278 60.566C156.966 60.254 156.537 60.098 155.991 60.098C154.917 60.098 154.284 60.7003 154.093 61.905H157.811ZM162.329 62.958V66H161.146V59.188H162.329V61.905H165.41V59.188H166.58V66H165.41V62.958H162.329ZM168.804 59.188H169.987V63.517C169.987 64.1063 170.087 64.5223 170.286 64.765C170.486 64.999 170.824 65.116 171.3 65.116C171.881 65.116 172.34 64.8777 172.678 64.401C172.938 64.037 173.068 63.452 173.068 62.646V59.188H174.238V65.974H173.133V64.921C172.717 65.753 172.011 66.169 171.014 66.169C170.182 66.169 169.606 65.948 169.285 65.506C168.965 65.0553 168.804 64.414 168.804 63.582V59.188ZM176.627 59.188H177.81V63.517C177.81 64.1063 177.91 64.5223 178.109 64.765C178.308 64.999 178.646 65.116 179.123 65.116C179.704 65.116 180.163 64.8777 180.501 64.401C180.761 64.037 180.891 63.452 180.891 62.646V59.188H182.061V65.974H180.956V64.921C180.54 65.753 179.834 66.169 178.837 66.169C178.005 66.169 177.429 65.948 177.108 65.506C176.787 65.0553 176.627 64.414 176.627 63.582V59.188Z" fill="#313131"/>
<circle cx="11.5" cy="62.5" r="11" stroke="#313131"/>
<circle cx="11.5" cy="62.5" r="7" stroke="#313131"/>
<rect x="37.5" y="52.5" width="29" height="18" stroke="#313131"/>
<path d="M69 54V73H39" stroke="#313131"/>
<circle cx="52" cy="61" r="3.5" stroke="#313131"/>
<rect x="62" y="57" width="1" height="8" fill="#313131"/>
<rect x="41" y="57" width="1" height="8" fill="#313131"/>
</svg>
