<svg width="101" height="28" viewBox="0 0 101 28" fill="none" xmlns="http://www.w3.org/2000/svg">
<path d="M6.56164 4H8.77164C9.67831 4 10.415 4.23 10.9816 4.69C11.5483 5.15 11.8316 5.77667 11.8316 6.57C11.8316 7.36333 11.5483 7.99 10.9816 8.45C10.415 8.91 9.67831 9.14 8.77164 9.14H7.34164V11H6.56164V4ZM7.34164 8.41H8.82164C9.47497 8.41 10.015 8.25667 10.4416 7.95C10.875 7.64333 11.0916 7.18333 11.0916 6.57C11.0916 5.96333 10.875 5.50667 10.4416 5.2C10.015 4.88667 9.47497 4.73 8.82164 4.73H7.34164V8.41ZM17.9678 11H17.4478L17.4178 9.87C17.2245 10.23 16.9478 10.52 16.5878 10.74C16.2278 10.9533 15.8278 11.06 15.3878 11.06C14.6811 11.06 14.0878 10.8133 13.6078 10.32C13.1278 9.82 12.8878 9.21333 12.8878 8.5C12.8878 7.78667 13.1278 7.18 13.6078 6.68C14.0878 6.18 14.6811 5.93 15.3878 5.93C15.8211 5.93 16.2178 6.04 16.5778 6.26C16.9445 6.47333 17.2245 6.76 17.4178 7.12L17.4478 6H17.9678V11ZM14.1378 9.83C14.4978 10.1833 14.9311 10.36 15.4378 10.36C15.9445 10.36 16.3778 10.1833 16.7378 9.83C17.0978 9.47667 17.2778 9.03333 17.2778 8.5C17.2778 7.96667 17.0978 7.52333 16.7378 7.17C16.3778 6.81 15.9445 6.63 15.4378 6.63C14.9378 6.63 14.5078 6.81 14.1478 7.17C13.7878 7.52333 13.6078 7.96667 13.6078 8.5C13.6078 9.03333 13.7845 9.47667 14.1378 9.83ZM22.7801 8.38C23.4334 8.53333 23.7601 8.93333 23.7601 9.58C23.7601 10.06 23.5734 10.43 23.2001 10.69C22.8267 10.9433 22.3401 11.07 21.7401 11.07H21.5701C21.0967 11.07 20.6567 10.9733 20.2501 10.78C19.8501 10.58 19.5701 10.3433 19.4101 10.07L19.8201 9.63C19.9801 9.85667 20.2167 10.0433 20.5301 10.19C20.8501 10.3367 21.1934 10.41 21.5601 10.41H21.7201C22.1067 10.41 22.4201 10.3333 22.6601 10.18C22.9067 10.02 23.0301 9.79 23.0301 9.49C23.0301 8.93667 22.6734 8.65667 21.9601 8.65L21.0801 8.64V8.17H21.8901C22.4967 8.17 22.8001 7.91667 22.8001 7.41C22.8001 7.15 22.6901 6.95 22.4701 6.81C22.2567 6.66333 21.9867 6.59 21.6601 6.59H21.5401C20.8934 6.59 20.3734 6.82 19.9801 7.28L19.5801 6.85C19.7934 6.58333 20.0801 6.36333 20.4401 6.19C20.8067 6.01667 21.1901 5.93 21.5901 5.93H21.7201C22.2334 5.93 22.6634 6.05 23.0101 6.29C23.3567 6.53 23.5301 6.85667 23.5301 7.27C23.5301 7.83667 23.2801 8.20667 22.7801 8.38ZM27.9955 5.93C28.7022 5.93 29.2955 6.18 29.7755 6.68C30.2555 7.18 30.4955 7.78667 30.4955 8.5C30.4955 9.21333 30.2555 9.82 29.7755 10.32C29.2955 10.8133 28.7022 11.06 27.9955 11.06C27.5955 11.06 27.2289 10.9633 26.8955 10.77C26.5689 10.57 26.3189 10.3067 26.1455 9.98V12.84H25.4155V6H25.9355L25.9655 7.13C26.1589 6.77 26.4355 6.48 26.7955 6.26C27.1555 6.04 27.5555 5.93 27.9955 5.93ZM27.9355 6.63C27.4289 6.63 26.9955 6.81 26.6355 7.17C26.2755 7.52333 26.0955 7.96667 26.0955 8.5C26.0955 9.03333 26.2755 9.48 26.6355 9.84C26.9955 10.1933 27.4289 10.37 27.9355 10.37C28.4355 10.37 28.8655 10.1933 29.2255 9.84C29.5855 9.48 29.7655 9.03333 29.7655 8.5C29.7655 7.96667 29.5855 7.52333 29.2255 7.17C28.8655 6.81 28.4355 6.63 27.9355 6.63ZM36.835 11H36.315L36.285 9.87C36.0917 10.23 35.815 10.52 35.455 10.74C35.095 10.9533 34.695 11.06 34.255 11.06C33.5483 11.06 32.955 10.8133 32.475 10.32C31.995 9.82 31.755 9.21333 31.755 8.5C31.755 7.78667 31.995 7.18 32.475 6.68C32.955 6.18 33.5483 5.93 34.255 5.93C34.6883 5.93 35.085 6.04 35.445 6.26C35.8117 6.47333 36.0917 6.76 36.285 7.12L36.315 6H36.835V11ZM33.005 9.83C33.365 10.1833 33.7983 10.36 34.305 10.36C34.8117 10.36 35.245 10.1833 35.605 9.83C35.965 9.47667 36.145 9.03333 36.145 8.5C36.145 7.96667 35.965 7.52333 35.605 7.17C35.245 6.81 34.8117 6.63 34.305 6.63C33.805 6.63 33.375 6.81 33.015 7.17C32.655 7.52333 32.475 7.96667 32.475 8.5C32.475 9.03333 32.6517 9.47667 33.005 9.83ZM42.6126 4H43.3326C43.3326 4.38667 43.1992 4.67 42.9326 4.85C42.6659 5.02333 42.2292 5.11 41.6226 5.11H41.4226C40.7292 5.11 40.1926 5.26 39.8126 5.56C39.4392 5.85333 39.2526 6.3 39.2526 6.9V7.24C39.4192 6.88 39.6792 6.59333 40.0326 6.38C40.3859 6.16 40.7759 6.05 41.2026 6.05C41.9092 6.05 42.4926 6.28667 42.9526 6.76C43.4192 7.22667 43.6526 7.80667 43.6526 8.5C43.6526 9.22 43.4092 9.83 42.9226 10.33C42.4426 10.83 41.8292 11.08 41.0826 11.08C40.3492 11.08 39.7392 10.8333 39.2526 10.34C38.7659 9.84 38.5226 9.21 38.5226 8.45V7.12C38.5226 6.26 38.7792 5.60667 39.2926 5.16C39.8059 4.71333 40.5326 4.49 41.4726 4.49C41.9192 4.49 42.2192 4.45667 42.3726 4.39C42.5326 4.31667 42.6126 4.18667 42.6126 4ZM41.0826 6.72C40.5759 6.72 40.1426 6.89667 39.7826 7.25C39.4226 7.59667 39.2426 8.03 39.2426 8.55C39.2426 9.07 39.4192 9.50667 39.7726 9.86C40.1259 10.2067 40.5626 10.38 41.0826 10.38C41.5959 10.38 42.0292 10.2067 42.3826 9.86C42.7359 9.50667 42.9126 9.07 42.9126 8.55C42.9126 8.03 42.7326 7.59667 42.3726 7.25C42.0126 6.89667 41.5826 6.72 41.0826 6.72ZM47.4595 5.93C48.1729 5.93 48.7795 6.18333 49.2795 6.69C49.7795 7.19 50.0295 7.79333 50.0295 8.5C50.0295 9.20667 49.7795 9.81 49.2795 10.31C48.7795 10.81 48.1729 11.06 47.4595 11.06C46.7462 11.06 46.1395 10.81 45.6395 10.31C45.1462 9.81 44.8995 9.20667 44.8995 8.5C44.8995 7.78667 45.1495 7.18 45.6495 6.68C46.1495 6.18 46.7529 5.93 47.4595 5.93ZM47.4495 6.63C46.9495 6.63 46.5195 6.81 46.1595 7.17C45.7995 7.52333 45.6195 7.96667 45.6195 8.5C45.6195 9.03333 45.7962 9.47667 46.1495 9.83C46.5095 10.1833 46.9429 10.36 47.4495 10.36C47.9562 10.36 48.3895 10.1833 48.7495 9.83C49.1095 9.47667 49.2895 9.03333 49.2895 8.5C49.2895 7.96667 49.1095 7.52333 48.7495 7.17C48.3895 6.81 47.9562 6.63 47.4495 6.63ZM53.4395 6.69V11H52.7095V6.69H50.8795V6H55.2695V6.69H53.4395ZM60.2867 11L59.4667 9.74C59.2134 9.34667 59.0067 9.08667 58.8467 8.96C58.6934 8.83333 58.4467 8.77 58.1067 8.77H57.3467V11H56.6167V6H57.3467V8.07H57.9967C58.3367 8.07 58.5834 8.00667 58.7367 7.88C58.8967 7.75333 59.1034 7.49333 59.3567 7.1L60.0767 6H60.8967L59.9567 7.42C59.7634 7.71333 59.6001 7.93333 59.4667 8.08C59.3401 8.22667 59.2034 8.33333 59.0567 8.4C59.2367 8.45333 59.3967 8.55667 59.5367 8.71C59.6834 8.86333 59.8601 9.1 60.0667 9.42L61.0967 11H60.2867ZM67.0694 11H66.5494L66.5194 9.87C66.326 10.23 66.0494 10.52 65.6894 10.74C65.3294 10.9533 64.9294 11.06 64.4894 11.06C63.7827 11.06 63.1894 10.8133 62.7094 10.32C62.2294 9.82 61.9894 9.21333 61.9894 8.5C61.9894 7.78667 62.2294 7.18 62.7094 6.68C63.1894 6.18 63.7827 5.93 64.4894 5.93C64.9227 5.93 65.3194 6.04 65.6794 6.26C66.046 6.47333 66.326 6.76 66.5194 7.12L66.5494 6H67.0694V11ZM63.2394 9.83C63.5994 10.1833 64.0327 10.36 64.5394 10.36C65.046 10.36 65.4794 10.1833 65.8394 9.83C66.1994 9.47667 66.3794 9.03333 66.3794 8.5C66.3794 7.96667 66.1994 7.52333 65.8394 7.17C65.4794 6.81 65.046 6.63 64.5394 6.63C64.0394 6.63 63.6094 6.81 63.2494 7.17C62.8894 7.52333 62.7094 7.96667 62.7094 8.5C62.7094 9.03333 62.886 9.47667 63.2394 9.83ZM35.1158 17.93C35.9158 17.93 36.5724 18.24 37.0858 18.86L36.6458 19.33C36.2191 18.8633 35.7091 18.63 35.1158 18.63C34.6091 18.63 34.1758 18.81 33.8158 19.17C33.4624 19.5233 33.2858 19.9667 33.2858 20.5C33.2858 21.0333 33.4624 21.4767 33.8158 21.83C34.1758 22.1833 34.6091 22.36 35.1158 22.36C35.7158 22.36 36.2258 22.13 36.6458 21.67L37.0858 22.14C36.5724 22.7533 35.9158 23.06 35.1158 23.06C34.4024 23.06 33.7958 22.81 33.2958 22.31C32.8024 21.81 32.5558 21.2067 32.5558 20.5C32.5558 19.7867 32.8058 19.18 33.3058 18.68C33.8058 18.18 34.4091 17.93 35.1158 17.93ZM43.378 23H42.858L42.828 21.87C42.6346 22.23 42.358 22.52 41.998 22.74C41.638 22.9533 41.238 23.06 40.798 23.06C40.0913 23.06 39.498 22.8133 39.018 22.32C38.538 21.82 38.298 21.2133 38.298 20.5C38.298 19.7867 38.538 19.18 39.018 18.68C39.498 18.18 40.0913 17.93 40.798 17.93C41.2313 17.93 41.628 18.04 41.988 18.26C42.3546 18.4733 42.6346 18.76 42.828 19.12L42.858 18H43.378V23ZM39.548 21.83C39.908 22.1833 40.3413 22.36 40.848 22.36C41.3546 22.36 41.788 22.1833 42.148 21.83C42.508 21.4767 42.688 21.0333 42.688 20.5C42.688 19.9667 42.508 19.5233 42.148 19.17C41.788 18.81 41.3546 18.63 40.848 18.63C40.348 18.63 39.918 18.81 39.558 19.17C39.198 19.5233 39.018 19.9667 39.018 20.5C39.018 21.0333 39.1946 21.4767 39.548 21.83ZM48.4886 17.05C48.2153 17.2967 47.8786 17.42 47.4786 17.42C47.0786 17.42 46.7386 17.2967 46.4586 17.05C46.1853 16.7967 46.0486 16.4867 46.0486 16.12H46.5786C46.5786 16.34 46.6653 16.5233 46.8386 16.67C47.0119 16.8167 47.2253 16.89 47.4786 16.89C47.7319 16.89 47.9453 16.8167 48.1186 16.67C48.2986 16.5233 48.3886 16.34 48.3886 16.12H48.9086C48.9086 16.4867 48.7686 16.7967 48.4886 17.05ZM49.7286 23H49.0086V19.22L45.6786 23H45.2386V18H45.9686V21.78L49.2986 18H49.7286V23ZM53.5763 18.69V23H52.8463V18.69H51.0163V18H55.4063V18.69H53.5763ZM58.7779 17.93C59.4912 17.93 60.0979 18.1833 60.5979 18.69C61.0979 19.19 61.3479 19.7933 61.3479 20.5C61.3479 21.2067 61.0979 21.81 60.5979 22.31C60.0979 22.81 59.4912 23.06 58.7779 23.06C58.0646 23.06 57.4579 22.81 56.9579 22.31C56.4646 21.81 56.2179 21.2067 56.2179 20.5C56.2179 19.7867 56.4679 19.18 56.9679 18.68C57.4679 18.18 58.0712 17.93 58.7779 17.93ZM58.7679 18.63C58.2679 18.63 57.8379 18.81 57.4779 19.17C57.1179 19.5233 56.9379 19.9667 56.9379 20.5C56.9379 21.0333 57.1146 21.4767 57.4679 21.83C57.8279 22.1833 58.2612 22.36 58.7679 22.36C59.2746 22.36 59.7079 22.1833 60.0679 21.83C60.4279 21.4767 60.6079 21.0333 60.6079 20.5C60.6079 19.9667 60.4279 19.5233 60.0679 19.17C59.7079 18.81 59.2746 18.63 58.7679 18.63ZM62.8948 18H65.5148C66.0615 18 66.4648 18.1167 66.7248 18.35C66.9915 18.5833 67.1248 18.8967 67.1248 19.29C67.1248 19.85 66.8782 20.2133 66.3848 20.38C67.0315 20.54 67.3548 20.94 67.3548 21.58C67.3548 22.0533 67.2082 22.41 66.9148 22.65C66.6215 22.8833 66.1615 23 65.5348 23H62.8948V18ZM63.6148 18.62V20.13H65.4748C66.0815 20.13 66.3848 19.88 66.3848 19.38C66.3848 18.8733 66.0782 18.62 65.4648 18.62H63.6148ZM63.6148 22.38H65.5448C66.2582 22.38 66.6148 22.0967 66.6148 21.53C66.6148 20.97 66.2582 20.69 65.5448 20.69L63.6148 20.68V22.38Z" fill="white"/>
<g clip-path="url(#clip0_38_0)">
<path d="M79.1977 23.1037C78.9608 22.8394 78.6778 22.6201 78.3624 22.4565C78.0377 22.2863 77.6835 22.179 77.3188 22.1403C77.2669 22.1325 77.2145 22.1282 77.162 22.1274H76.9776C76.3929 22.1202 75.8195 22.2894 75.3329 22.6128C74.8583 22.9267 74.483 23.3686 74.2505 23.887C74.1715 24.0709 74.1097 24.2617 74.0662 24.457C73.9765 24.8541 73.9765 25.2661 74.0662 25.6631C74.1097 25.8591 74.1714 26.0505 74.2505 26.235C74.4869 26.7484 74.8616 27.1864 75.3329 27.5C75.8178 27.826 76.391 27.9967 76.9758 27.989C77.2027 27.9903 77.4291 27.9662 77.6506 27.9173C77.8578 27.8681 78.0597 27.7992 78.2536 27.7114L78.3403 27.6636C78.3849 27.6369 78.4318 27.6141 78.4804 27.5956L78.6095 27.5459L78.6758 27.647C78.7364 27.7513 78.8236 27.8377 78.9286 27.8975C79.0335 27.9572 79.1524 27.9882 79.2733 27.9872C79.4561 27.9863 79.6314 27.9144 79.7619 27.7868C79.8311 27.7276 79.8868 27.6543 79.9253 27.5718C79.9638 27.4894 79.9841 27.3997 79.985 27.3087V25.0582C79.9823 24.6954 79.9097 24.3365 79.7711 24.001C79.633 23.6713 79.439 23.3678 79.1977 23.1037ZM78.4343 25.6779C78.3528 25.8632 78.2371 26.0316 78.0932 26.1743C77.9482 26.3166 77.7765 26.4291 77.588 26.5052C77.3919 26.5849 77.182 26.6255 76.9703 26.6248C76.7668 26.6244 76.5657 26.5812 76.3802 26.4979C76.1956 26.4166 76.0266 26.304 75.8805 26.1651C75.7327 26.0236 75.6127 25.8559 75.5265 25.6705C75.436 25.4784 75.3893 25.2686 75.3901 25.0564C75.3904 24.8498 75.4344 24.6455 75.5191 24.457C75.6022 24.2695 75.7198 24.0993 75.8658 23.955C76.0108 23.8117 76.1807 23.6958 76.3673 23.613C76.558 23.5298 76.7639 23.4868 76.9721 23.4868C77.1803 23.4868 77.3862 23.5298 77.5769 23.613C77.7664 23.6945 77.939 23.8105 78.0858 23.955C78.2318 24.0993 78.3494 24.2695 78.4324 24.457C78.5172 24.6455 78.5612 24.8498 78.5615 25.0564C78.564 25.272 78.5206 25.4857 78.4343 25.6834V25.6779Z" fill="white"/>
<path d="M84.1009 22.1422C83.711 22.1568 83.327 22.2408 82.9669 22.3904C82.6207 22.5331 82.3038 22.7382 82.032 22.9953C81.7689 23.2525 81.5569 23.5569 81.4069 23.8926C81.2484 24.2348 81.1672 24.6077 81.1691 24.9847V27.3271C81.1659 27.4183 81.182 27.5091 81.2163 27.5937C81.2506 27.6783 81.3024 27.7547 81.3682 27.8181C81.43 27.8789 81.5035 27.9266 81.5844 27.9582C81.6652 27.9898 81.7516 28.0047 81.8384 28.0019C82.0227 28.0121 82.2036 27.9493 82.3418 27.8273C82.4065 27.7716 82.4589 27.7031 82.4957 27.6262C82.5326 27.5493 82.553 27.4656 82.5557 27.3805V25.0711C82.5504 24.8568 82.5906 24.6437 82.6737 24.446C82.7526 24.2611 82.8659 24.0926 83.0074 23.9496C83.1529 23.8053 83.3255 23.6912 83.5154 23.6139C83.7053 23.5366 83.9086 23.4976 84.1138 23.4991C84.3011 23.4965 84.4804 23.4228 84.6153 23.2932C84.6794 23.2335 84.7302 23.1611 84.7645 23.0807C84.7988 23.0003 84.8158 22.9135 84.8144 22.8261C84.8022 22.642 84.7229 22.4687 84.5913 22.3389C84.5276 22.2741 84.4512 22.2231 84.3668 22.1893C84.2823 22.1554 84.1918 22.1394 84.1009 22.1422Z" fill="white"/>
<path d="M91.1057 26.4298C91.0688 26.3524 91.0153 26.284 90.9489 26.2294C90.8133 26.1059 90.6347 26.0399 90.4511 26.0456H90.4382C90.2538 26.0422 90.0749 26.1078 89.9366 26.2294C89.8033 26.3569 89.6443 26.4547 89.4702 26.5162C89.2684 26.5842 89.0561 26.616 88.8432 26.61C88.6252 26.6112 88.4092 26.5673 88.2089 26.4813C88.0177 26.399 87.8452 26.279 87.7019 26.1283C87.5712 25.9786 87.4699 25.8059 87.4032 25.619C87.3331 25.4241 87.303 25.2171 87.3147 25.0104V23.5009H88.882C88.9716 23.4997 89.06 23.48 89.1415 23.4429C89.2231 23.4059 89.2961 23.3524 89.3558 23.2857C89.4219 23.2242 89.4749 23.1502 89.5118 23.0679C89.5487 22.9857 89.5688 22.8969 89.5709 22.8068C89.573 22.7167 89.557 22.6271 89.5238 22.5433C89.4907 22.4595 89.4411 22.3831 89.378 22.3186C89.314 22.2533 89.2364 22.203 89.1506 22.1712C89.0649 22.1394 88.9731 22.127 88.882 22.1348H87.3147V20.8183C87.3181 20.7309 87.3014 20.6439 87.2659 20.5639C87.2305 20.4839 87.1771 20.4131 87.11 20.3568C86.9585 20.233 86.7674 20.1677 86.5716 20.1729C86.3786 20.1676 86.1903 20.233 86.0424 20.3568C85.9752 20.4131 85.9219 20.4839 85.8864 20.5639C85.851 20.6439 85.8343 20.7309 85.8377 20.8183V24.9994C85.8304 25.4223 85.9147 25.8419 86.0848 26.2294C86.2428 26.586 86.4717 26.9069 86.7578 27.1726C87.046 27.4369 87.3829 27.643 87.7498 27.7794C88.1362 27.9226 88.5454 27.9949 88.9575 27.9927C89.3373 27.9958 89.7136 27.922 90.0639 27.7757C90.4158 27.625 90.737 27.4113 91.0116 27.1451C91.0706 27.087 91.1148 27.0158 91.1407 26.9373C91.169 26.8539 91.1815 26.766 91.1776 26.6781C91.1705 26.5913 91.1461 26.5069 91.1057 26.4298Z" fill="white"/>
<path d="M100.677 26.8269L98.8961 25.0581L100.675 23.2894C100.737 23.2253 100.785 23.1497 100.816 23.067C100.848 22.9843 100.863 22.8961 100.86 22.8076C100.863 22.7205 100.849 22.6335 100.817 22.5523C100.785 22.471 100.737 22.397 100.675 22.3351C100.548 22.2045 100.373 22.1292 100.191 22.1255H100.183C100.098 22.1259 100.015 22.1436 99.9369 22.1774C99.8592 22.2113 99.7893 22.2605 99.7314 22.3222L97.9115 24.0928L96.1303 22.3388C95.9963 22.216 95.8249 22.1415 95.6435 22.1273C95.5523 22.1237 95.4614 22.1405 95.3774 22.1764C95.2935 22.2124 95.2187 22.2666 95.1586 22.3351C95.039 22.4697 94.9665 22.6394 94.9521 22.8187C94.9461 22.9017 94.9596 22.9851 94.9916 23.062C95.0237 23.1389 95.0732 23.2073 95.1364 23.2618L96.9563 25.0563L95.1364 26.8508C95.0729 26.9125 95.0235 26.9872 94.9917 27.0697C94.9599 27.1522 94.9464 27.2406 94.9521 27.3289C94.9578 27.5067 95.0325 27.6755 95.1604 27.7996C95.2229 27.8651 95.2996 27.9157 95.3845 27.9476C95.4695 27.9794 95.5605 27.9917 95.6509 27.9834C95.831 27.9787 96.0043 27.914 96.1432 27.7996L97.917 26.0381L99.6982 27.7665C99.762 27.8375 99.8402 27.8942 99.9276 27.9328C100.015 27.9715 100.11 27.9912 100.205 27.9908C100.294 27.9944 100.382 27.98 100.465 27.9484C100.548 27.9168 100.623 27.8686 100.687 27.8069C100.754 27.7441 100.807 27.6672 100.842 27.5818C100.877 27.4964 100.892 27.4044 100.887 27.3123C100.887 27.2215 100.868 27.1317 100.832 27.0484C100.796 26.965 100.743 26.8897 100.677 26.8269Z" fill="white"/>
<path d="M93.4528 22.3223C93.4088 22.2844 93.3605 22.2517 93.309 22.2248C93.2087 22.1617 93.0921 22.1291 92.9734 22.1311C92.8548 22.1291 92.7382 22.1617 92.6378 22.2248C92.5863 22.2517 92.5381 22.2844 92.494 22.3223C92.4283 22.3761 92.3754 22.4437 92.3391 22.5203C92.3027 22.5969 92.2838 22.6806 92.2838 22.7654V27.3492C92.2839 27.4394 92.3039 27.5286 92.3425 27.6102C92.381 27.6919 92.4372 27.7641 92.5069 27.8217C92.6333 27.933 92.7975 27.9922 92.9661 27.9872H92.99C93.1586 27.9922 93.3227 27.933 93.4491 27.8217C93.5189 27.7641 93.575 27.6919 93.6136 27.6102C93.6522 27.5286 93.6722 27.4394 93.6723 27.3492V22.7654C93.6711 22.6799 93.6508 22.5957 93.6129 22.5191C93.5749 22.4424 93.5202 22.3752 93.4528 22.3223Z" fill="white"/>
<path d="M93.4898 20.3916C93.4309 20.3268 93.3588 20.2753 93.2784 20.2404C93.1979 20.2055 93.111 20.1881 93.0233 20.1894C92.8438 20.1856 92.6699 20.2515 92.5383 20.3732C92.4724 20.4303 92.4191 20.5006 92.3819 20.5794C92.3448 20.6583 92.3246 20.744 92.3226 20.8311C92.315 20.9253 92.3275 21.02 92.3593 21.1091C92.3911 21.1981 92.4414 21.2795 92.507 21.3477C92.6473 21.4744 92.8303 21.5439 93.0196 21.5426C93.1067 21.5433 93.1929 21.5257 93.2727 21.4908C93.3524 21.456 93.4239 21.4047 93.4824 21.3404C93.6088 21.2136 93.6798 21.042 93.6798 20.8632C93.6798 20.6844 93.6088 20.5129 93.4824 20.3861L93.4898 20.3916Z" fill="white"/>
</g>
<g clip-path="url(#clip1_38_0)">
<path d="M87.4382 7.43884C85.4223 7.43884 83.5896 9.26848 83.5896 11.525C83.5924 12.355 83.8397 13.1635 84.297 13.8377C85.2757 13.2227 86.3368 12.7881 87.4456 12.7881C88.5544 12.7881 89.6136 13.2227 90.5941 13.8377C91.0515 13.1635 91.2988 12.355 91.3015 11.525C91.2942 9.26848 89.4597 7.43884 87.4382 7.43884Z" fill="white"/>
<path d="M87.4361 0C82.4878 0 78.4761 11.0923 78.4761 16.2708C78.4761 20.289 80.8934 15.9739 84.2875 13.8378C83.8086 13.1355 83.5608 12.2861 83.5824 11.4203C83.6039 10.5544 83.8935 9.71999 84.4066 9.04537C84.243 9.45958 84.1589 9.90412 84.1592 10.3531C84.1592 11.2732 84.5045 12.1555 85.119 12.8061C85.7335 13.4567 86.567 13.8222 87.4361 13.8222C88.3051 13.8222 89.1386 13.4567 89.7531 12.8061C90.3677 12.1555 90.7129 11.2732 90.7129 10.3531C90.7132 9.90412 90.6291 9.45958 90.4655 9.04537C90.9786 9.71999 91.2682 10.5544 91.2898 11.4203C91.3113 12.2861 91.0635 13.1355 90.5846 13.8378C93.9806 15.972 96.3961 20.289 96.3961 16.2708C96.3961 11.0943 92.3843 0 87.4361 0Z" fill="white"/>
</g>
<defs>
<clipPath id="clip0_38_0">
<rect width="26.88" height="7.84" fill="white" transform="translate(74 20.16)"/>
</clipPath>
<clipPath id="clip1_38_0">
<rect width="17.92" height="17.92" fill="white" transform="translate(78.4802)"/>
</clipPath>
</defs>
</svg>
